<svg width="160" height="27" viewBox="0 0 160 27" fill="none" xmlns="http://www.w3.org/2000/svg">
<path d="M74.6481 0.0839844C76.4692 0.0839844 78.2903 0.120208 80.1115 0.210769C81.245 0.265105 82.1556 1.1526 82.2114 2.25743C82.36 5.08292 82.36 7.89029 82.2114 10.7158C82.1556 11.8206 81.245 12.7081 80.1115 12.7624C78.2903 12.8349 76.4692 12.8892 74.6481 12.8892C72.8269 12.8892 71.0058 12.853 69.1846 12.7624C68.0511 12.7081 67.1405 11.8206 67.0848 10.7158C66.9361 7.89029 66.9361 5.08292 67.0848 2.25743C67.1405 1.1526 68.0511 0.265105 69.1846 0.210769C71.0058 0.120208 72.8269 0.0839844 74.6481 0.0839844ZM69.2404 1.65973C69.0546 1.65973 68.8873 1.73218 68.7758 1.85897C68.6457 1.98575 68.5714 2.14876 68.5714 2.31177C68.4227 5.0648 68.4227 7.87217 68.5714 10.6252C68.5714 10.8063 68.6643 10.9693 68.7758 11.078C68.9059 11.2048 69.0732 11.2772 69.2404 11.2772C71.0244 11.3497 72.8455 11.404 74.6295 11.404C76.4135 11.404 78.2346 11.3678 80.0186 11.2772C80.2044 11.2772 80.3716 11.2048 80.4831 11.078C80.6132 10.9512 80.6876 10.7882 80.6876 10.6252C80.8362 7.87217 80.8362 5.0648 80.6876 2.31177C80.6876 2.13065 80.6132 1.96764 80.4831 1.85897C80.3531 1.73218 80.1858 1.65973 80.0186 1.65973C78.2346 1.58729 76.4135 1.53295 74.6295 1.53295C72.8455 1.53295 71.043 1.56917 69.2404 1.65973Z" fill="#FFFEFA"/>
<path d="M100.404 0.319336V12.6537H97.7654L87.4332 1.7683H87.0058V12.6537H85.5192V0.319336H88.158L98.4158 11.2047H98.9175V0.319336H100.404Z" fill="#FFFEFA"/>
<path d="M114.472 1.7683H109.268V12.6537H107.782V1.7683H102.578V0.319336H114.472V1.7683Z" fill="#FFFEFA"/>
<path d="M125.454 9.99118H116.348L115.103 12.6537H113.468L119.266 0.319336H122.537L128.334 12.6537H126.699L125.454 9.99118ZM124.767 8.5241L121.589 1.75019H120.232L117.055 8.5241H124.767Z" fill="#FFFEFA"/>
<path d="M145.357 5.91596C145.301 7.0208 144.39 7.90829 143.257 7.96263H131.958V12.6537H130.471V0.319336H143.275C144.409 0.373672 145.319 1.26116 145.375 2.366L145.357 5.91596ZM143.87 5.84352V2.43845C143.87 2.25733 143.796 2.09432 143.665 1.98565C143.535 1.85886 143.368 1.78641 143.201 1.78641H131.977V6.49555L143.201 6.51366C143.387 6.51366 143.554 6.44121 143.665 6.31443C143.796 6.16953 143.87 6.00652 143.87 5.84352Z" fill="#FFFEFA"/>
<path d="M149.593 1.7683V5.75295H160V7.20192H149.593V11.1866H160V12.6355H148.088V0.319336H160V1.7683H149.593Z" fill="#FFFEFA"/>
<path d="M67.3078 15.6599H66.3414V14.2109H80.7061C81.8954 14.2653 82.8432 15.1528 82.8989 16.2576V24.5167C82.8432 25.6215 81.8769 26.509 80.7061 26.5634H67.3078V15.6599ZM81.3565 16.33C81.3379 16.1489 81.2636 15.9859 81.1335 15.8772C81.0035 15.7505 80.8176 15.678 80.6318 15.678H68.8687V25.0963H80.6504C80.8362 25.0963 81.0035 25.0238 81.1521 24.8971C81.2822 24.7703 81.3565 24.6073 81.3751 24.4443V16.33H81.3565Z" fill="#FFFEFA"/>
<path d="M87.7863 15.6599V19.6446H98.6945V21.0935H87.7863V25.0782H98.6945V26.5271H86.2253V14.2109H98.6945V15.6599H87.7863Z" fill="#FFFEFA"/>
<path d="M103.638 21.1127C102.448 21.0584 101.501 20.1709 101.445 19.0661V17.2911C101.463 16.9107 101.482 16.5304 101.501 16.15C101.556 15.0452 102.523 14.1577 103.693 14.1033C105.607 14.0309 107.336 13.9766 109.231 13.9766C111.127 13.9766 112.873 14.0128 114.769 14.1033C115.958 14.1577 116.906 15.0452 116.962 16.15C116.98 16.5304 116.999 16.9107 117.017 17.2911H115.456C115.438 16.9288 115.419 16.5847 115.401 16.2225C115.382 16.0413 115.308 15.8783 115.178 15.7697C115.048 15.6429 114.862 15.5704 114.676 15.5704C112.799 15.498 111.071 15.4436 109.194 15.4436C107.317 15.4436 105.589 15.4799 103.712 15.5704C103.526 15.5704 103.359 15.6429 103.21 15.7697C103.08 15.8964 103.006 16.0595 102.987 16.2225C102.969 16.5847 102.95 16.9288 102.931 17.2911V18.9936C102.95 19.1747 103.024 19.3377 103.154 19.4464C103.285 19.5732 103.47 19.6456 103.656 19.6456H114.787C115.977 19.7 116.924 20.5875 116.98 21.6923V23.4673C116.962 23.8476 116.943 24.228 116.924 24.6084C116.869 25.7132 115.902 26.6007 114.732 26.655C112.818 26.7275 111.089 26.7818 109.194 26.7818C107.28 26.7818 105.552 26.7456 103.656 26.655C102.467 26.6007 101.519 25.7132 101.463 24.6084C101.445 24.228 101.426 23.8476 101.408 23.4673H102.969C102.987 23.8295 103.006 24.1737 103.024 24.5359C103.043 24.717 103.117 24.88 103.247 24.9887C103.377 25.1155 103.563 25.1879 103.749 25.1879C105.626 25.2604 107.354 25.3147 109.231 25.3147C111.108 25.3147 112.836 25.2785 114.713 25.1879C114.899 25.1879 115.066 25.1155 115.215 24.9887C115.345 24.8619 115.419 24.6989 115.438 24.5359C115.456 24.1737 115.475 23.8295 115.494 23.4673V21.7648C115.475 21.5836 115.401 21.4206 115.271 21.312C115.141 21.1852 114.955 21.1127 114.769 21.1127H103.638Z" fill="#FFFEFA"/>
<path d="M120.232 26.5453V14.2109H121.793V26.5453H120.232Z" fill="#FFFEFA"/>
<path d="M130.434 21.1308V19.6638H138.983C140.172 19.7181 141.12 20.6056 141.194 21.7104V23.4673C141.175 23.8476 141.157 24.228 141.138 24.6084C141.082 25.7132 140.116 26.6007 138.927 26.655C137.013 26.7456 135.117 26.7818 133.203 26.7818C131.289 26.7818 129.394 26.7456 127.48 26.655C126.29 26.6007 125.343 25.7132 125.287 24.6084C125.138 21.7829 125.138 18.9755 125.287 16.15C125.343 15.0452 126.309 14.1577 127.48 14.1033C129.394 14.0309 131.289 13.9766 133.203 13.9766C135.117 13.9766 137.013 14.0128 138.927 14.1033C140.116 14.1577 141.064 15.0452 141.12 16.15C141.138 16.5304 141.157 16.9107 141.175 17.2911H139.614C139.596 16.9288 139.577 16.5666 139.559 16.2225C139.54 16.0413 139.466 15.8783 139.336 15.7697C139.206 15.6429 139.02 15.5704 138.834 15.5704C136.957 15.498 135.062 15.4436 133.185 15.4436C131.308 15.4436 129.412 15.4799 127.535 15.5704C127.35 15.5704 127.182 15.6429 127.034 15.7697C126.904 15.8964 126.829 16.0595 126.811 16.2225C126.662 18.9755 126.662 21.7829 126.811 24.5359C126.829 24.717 126.904 24.88 127.034 24.9887C127.164 25.1155 127.35 25.1879 127.535 25.1879C129.412 25.2604 131.308 25.3147 133.185 25.3147C135.062 25.3147 136.957 25.2785 138.834 25.1879C139.02 25.1879 139.187 25.1155 139.336 24.9887C139.466 24.8619 139.54 24.6989 139.559 24.5359C139.577 24.1737 139.596 23.8295 139.614 23.4673V21.7829C139.596 21.6017 139.521 21.4387 139.391 21.3301C139.261 21.2033 139.075 21.1308 138.89 21.1308H130.434Z" fill="#FFFEFA"/>
<path d="M159.981 14.2109V26.5453H157.213L146.379 15.6599H145.933V26.5453H144.39V14.2109H147.159L157.919 25.0963H158.439V14.2109H159.981Z" fill="#FFFEFA"/>
<path d="M27.7445 0.230929C28.2834 0.249041 28.7666 0.41205 29.1568 0.68373C29.5285 0.955411 29.7515 1.31765 29.77 1.71612C29.8072 2.4406 29.863 3.16508 29.9001 3.88957C30.0674 7.07729 30.1417 10.2831 30.1417 13.4527C30.1417 17.3468 30.0116 21.2953 29.77 25.1712C29.7515 25.5516 29.5285 25.9319 29.1568 26.2036C28.7851 26.4753 28.2834 26.6383 27.7445 26.6564C19.345 26.9643 10.8153 26.9643 2.39721 26.6564C1.8583 26.6383 1.37515 26.4753 0.984902 26.2036C0.613241 25.9319 0.390244 25.5697 0.371661 25.1712C0.130081 21.2771 0 17.3287 0 13.4527C0 10.2831 0.0743322 7.07729 0.24158 3.88957C0.278746 3.16508 0.315912 2.4406 0.371661 1.71612C0.390244 1.33576 0.613241 0.973523 0.984902 0.68373C1.35656 0.41205 1.8583 0.249041 2.39721 0.230929C10.7968 -0.0769763 19.3264 -0.0769763 27.7445 0.230929Z" fill="#D53B2F"/>
<path d="M60.8782 0.230929C61.4171 0.249041 61.9003 0.41205 62.2905 0.68373C62.6622 0.955411 62.8852 1.31765 62.9038 1.71612C62.9409 2.4406 62.9967 3.16508 63.0339 3.88957C63.2011 7.07729 63.2754 10.2831 63.2754 13.4527C63.2754 17.3468 63.1453 21.2953 62.9038 25.1712C62.8852 25.5516 62.6622 25.9319 62.2905 26.2036C61.9189 26.4753 61.4171 26.6383 60.8782 26.6564C52.4787 26.9643 43.9491 26.9643 35.5309 26.6564C34.992 26.6383 34.5089 26.4753 34.1186 26.2036C33.747 25.9319 33.524 25.5697 33.5054 25.1712C33.2638 21.2771 33.1337 17.3287 33.1337 13.4527C33.1337 10.2831 33.2081 7.07729 33.3753 3.88957C33.4125 3.16508 33.4496 2.4406 33.5054 1.71612C33.524 1.33576 33.747 0.973523 34.1186 0.68373C34.4903 0.41205 34.992 0.249041 35.5309 0.230929C43.9305 -0.0769763 52.4601 -0.0769763 60.8782 0.230929Z" fill="#A3A3A3"/>
<path d="M15.071 4.97754C17.4868 4.97754 19.884 5.03188 22.2998 5.14055C23.805 5.213 24.9943 6.37217 25.0687 7.83925C25.2545 11.5703 25.2545 15.3014 25.0687 19.0325C24.9943 20.4996 23.7864 21.6588 22.2998 21.7312C19.884 21.8399 17.4868 21.8942 15.071 21.8942C12.6552 21.8942 10.258 21.8399 7.84219 21.7312C6.33696 21.6588 5.14765 20.4996 5.07332 19.0325C4.88749 15.3014 4.88749 11.5703 5.07332 7.83925C5.14765 6.37217 6.35555 5.213 7.84219 5.14055C10.2394 5.03188 12.6552 4.97754 15.071 4.97754ZM7.93511 7.06043C7.69353 7.07854 7.47053 7.1691 7.30328 7.33211C7.13604 7.49512 7.04312 7.71246 7.02454 7.94792C6.83871 11.5884 6.83871 15.3014 7.02454 18.9419C7.04312 19.1774 7.13604 19.3948 7.30328 19.5578C7.47053 19.7208 7.69353 19.8113 7.93511 19.8294C10.2952 19.9381 12.7109 19.9925 15.071 19.9925C17.431 19.9925 19.8468 19.9381 22.2069 19.8294C22.4485 19.8113 22.6715 19.7208 22.8387 19.5578C23.006 19.3948 23.0989 19.1774 23.1175 18.9419C23.3033 15.3014 23.3033 11.5884 23.1175 7.94792C23.0989 7.71246 23.006 7.49512 22.8387 7.33211C22.6715 7.1691 22.4485 7.07854 22.2069 7.06043C19.8468 6.95176 17.431 6.89742 15.071 6.89742C12.7109 6.89742 10.2952 6.95176 7.93511 7.06043Z" fill="#FFFEFA"/>
<path d="M38.9689 7.20504H37.7425V5.28516H55.8795C57.3847 5.3576 58.5741 6.51678 58.6484 7.98385V18.9054C58.5741 20.3725 57.3662 21.5317 55.8795 21.6041H38.9689V7.20504ZM56.6786 18.7968V8.07441C56.66 7.83896 56.5671 7.62161 56.3998 7.4586C56.2326 7.2956 56.0096 7.20504 55.768 7.18692H40.9202V19.6661H55.768C56.0096 19.648 56.2326 19.5575 56.3998 19.3945C56.5857 19.2496 56.6786 19.0322 56.6786 18.7968Z" fill="#FFFEFA"/>
</svg>
