<svg width="301" height="73" viewBox="0 0 301 73" fill="none" xmlns="http://www.w3.org/2000/svg">
<rect width="301" height="73" rx="16" fill="#171A22"/>
<path d="M28.164 23.98C30.06 23.98 31.176 24.94 31.176 26.56C31.176 28.204 30.06 29.188 28.164 29.188H26.136V32.5H25.104V23.98H28.164ZM26.136 28.18H28.164C29.448 28.18 30.096 27.628 30.096 26.56C30.096 25.516 29.448 24.988 28.164 24.988H26.136V28.18ZM32.4237 28.012C32.6757 26.776 33.6717 25.996 35.0277 25.996C36.6597 25.996 37.5837 26.956 37.5837 28.66V31.216C37.5837 31.48 37.7037 31.612 37.9677 31.612H38.2317V32.5H37.7997C37.1517 32.5 36.5877 32.296 36.5877 31.516C36.3117 32.104 35.6157 32.644 34.6077 32.644C33.3357 32.644 32.3157 31.972 32.3157 30.832C32.3157 29.524 33.2997 29.188 34.7157 28.924L36.5757 28.552C36.5637 27.484 36.0477 26.956 35.0277 26.956C34.2237 26.956 33.6837 27.364 33.4917 28.096L32.4237 28.012ZM33.3717 30.832C33.3717 31.336 33.8037 31.756 34.7397 31.756C35.7717 31.744 36.5997 31.024 36.5997 29.536V29.452L35.0997 29.716C34.1517 29.884 33.3717 29.944 33.3717 30.832ZM42.1129 28.672C42.8449 28.684 43.3249 28.336 43.3249 27.784C43.3249 27.28 42.8089 26.956 41.9929 26.956C41.2489 26.956 40.7569 27.256 40.6969 27.712L39.6049 27.652C39.7249 26.632 40.6489 25.996 41.9929 25.996C43.4569 25.996 44.3809 26.68 44.3809 27.784C44.3809 28.384 43.9009 28.864 43.1089 29.08C44.0329 29.344 44.5969 29.98 44.5969 30.772C44.5969 31.924 43.5889 32.644 41.9929 32.644C40.4449 32.644 39.4369 31.9 39.3769 30.724L40.4329 30.676C40.4809 31.288 41.0809 31.684 41.9929 31.684C42.9409 31.684 43.5409 31.312 43.5409 30.712C43.5409 30.016 42.9769 29.596 42.1129 29.608L41.4529 29.62V28.66L42.1129 28.672ZM46.3402 34.3V26.14H47.2522L47.2882 27.088C47.6362 26.38 48.3202 25.996 49.2442 25.996C51.1402 25.996 51.9922 27.568 51.9922 29.32C51.9922 31.072 51.1402 32.644 49.2442 32.644C48.3562 32.644 47.7082 32.296 47.3482 31.636V34.3H46.3402ZM47.2402 29.32C47.2402 30.508 47.7802 31.684 49.0762 31.684C50.3842 31.684 50.9122 30.532 50.9122 29.32C50.9122 28.108 50.3842 26.956 49.0762 26.956C47.7802 26.956 47.2402 28.132 47.2402 29.32ZM53.5226 28.012C53.7746 26.776 54.7706 25.996 56.1266 25.996C57.7586 25.996 58.6826 26.956 58.6826 28.66V31.216C58.6826 31.48 58.8026 31.612 59.0666 31.612H59.3306V32.5H58.8986C58.2506 32.5 57.6866 32.296 57.6866 31.516C57.4106 32.104 56.7146 32.644 55.7066 32.644C54.4346 32.644 53.4146 31.972 53.4146 30.832C53.4146 29.524 54.3986 29.188 55.8146 28.924L57.6746 28.552C57.6626 27.484 57.1466 26.956 56.1266 26.956C55.3226 26.956 54.7826 27.364 54.5906 28.096L53.5226 28.012ZM54.4706 30.832C54.4706 31.336 54.9026 31.756 55.8386 31.756C56.8706 31.744 57.6986 31.024 57.6986 29.536V29.452L56.1986 29.716C55.2506 29.884 54.4706 29.944 54.4706 30.832ZM61.5678 29.668C61.5438 30.88 62.3478 31.732 63.5118 31.732C64.6398 31.732 65.4438 30.88 65.4438 29.668C65.4438 28.492 64.6758 27.652 63.5958 27.652C62.4198 27.652 61.5798 28.492 61.5678 29.668ZM60.4638 28.744C60.4638 26.428 61.0758 25.396 62.6598 24.712C63.4758 24.352 63.7158 24.064 63.7158 23.38L64.7478 23.368C64.7478 24.304 64.4238 24.976 63.4278 25.444C62.4078 25.936 61.5798 26.2 61.5078 27.928C61.9638 27.136 62.7318 26.692 63.6678 26.692C65.3598 26.692 66.4998 27.916 66.4998 29.668C66.4998 31.528 65.2518 32.692 63.4878 32.692C62.7438 32.692 61.9878 32.428 61.3758 31.768C60.7638 31.156 60.4638 30.064 60.4638 28.744ZM70.8028 32.644C69.0388 32.644 67.8868 31.348 67.8868 29.32C67.8868 27.292 69.0388 25.996 70.8028 25.996C72.5548 25.996 73.7068 27.292 73.7068 29.32C73.7068 31.348 72.5548 32.644 70.8028 32.644ZM68.9428 29.32C68.9428 30.796 69.6268 31.684 70.8028 31.684C71.9668 31.684 72.6508 30.796 72.6508 29.32C72.6508 27.844 71.9668 26.956 70.8028 26.956C69.6268 26.956 68.9428 27.844 68.9428 29.32ZM80.3168 26.14V27.028H78.0248V32.5H77.0048V27.028H74.7128V26.14H80.3168ZM81.5529 28.012C81.8049 26.776 82.8009 25.996 84.1569 25.996C85.7889 25.996 86.7129 26.956 86.7129 28.66V31.216C86.7129 31.48 86.8329 31.612 87.0969 31.612H87.3609V32.5H86.9289C86.2809 32.5 85.7169 32.296 85.7169 31.516C85.4409 32.104 84.7449 32.644 83.7369 32.644C82.4649 32.644 81.4449 31.972 81.4449 30.832C81.4449 29.524 82.4289 29.188 83.8449 28.924L85.7049 28.552C85.6929 27.484 85.1769 26.956 84.1569 26.956C83.3529 26.956 82.8129 27.364 82.6209 28.096L81.5529 28.012ZM82.5009 30.832C82.5009 31.336 82.9329 31.756 83.8689 31.756C84.9009 31.744 85.7289 31.024 85.7289 29.536V29.452L84.2289 29.716C83.2809 29.884 82.5009 29.944 82.5009 30.832ZM88.8895 26.14H89.8975V28.888H92.8975V26.14H93.9055V32.5H92.8975V29.776H89.8975V32.5H88.8895V26.14ZM98.4113 32.644C96.6473 32.644 95.4953 31.348 95.4953 29.32C95.4953 27.292 96.6473 25.996 98.4113 25.996C100.163 25.996 101.315 27.292 101.315 29.32C101.315 31.348 100.163 32.644 98.4113 32.644ZM96.5513 29.32C96.5513 30.796 97.2353 31.684 98.4113 31.684C99.5753 31.684 100.259 30.796 100.259 29.32C100.259 27.844 99.5753 26.956 98.4113 26.956C97.2353 26.956 96.5513 27.844 96.5513 29.32ZM24.96 48.5V42.14H27.6C29.064 42.14 30 42.824 30 43.904C30 44.612 29.496 45.092 28.644 45.212C29.652 45.32 30.264 45.884 30.264 46.7C30.264 47.804 29.364 48.5 27.948 48.5H24.96ZM25.968 47.612H27.948C28.704 47.612 29.184 47.252 29.184 46.7C29.184 46.088 28.704 45.716 27.948 45.716H25.968V47.612ZM25.968 44.828H27.6C28.404 44.828 28.92 44.468 28.92 43.904C28.92 43.364 28.404 43.028 27.6 43.028H25.968V44.828ZM31.9056 45.32C31.9056 43.304 33.0456 41.996 34.8216 41.996C36.2256 41.996 37.4736 42.92 37.5696 45.176L37.5816 45.632H32.9736C33.0696 46.928 33.7296 47.684 34.8216 47.684C35.4936 47.684 36.1176 47.288 36.4056 46.616L37.4856 46.7C37.1136 47.9 36.0336 48.644 34.8216 48.644C33.0456 48.644 31.9056 47.336 31.9056 45.32ZM32.9976 44.744H36.4776C36.3096 43.412 35.5896 42.956 34.8216 42.956C33.8136 42.956 33.1656 43.616 32.9976 44.744ZM40.0822 45.668C40.0582 46.88 40.8622 47.732 42.0262 47.732C43.1542 47.732 43.9582 46.88 43.9582 45.668C43.9582 44.492 43.1902 43.652 42.1102 43.652C40.9342 43.652 40.0942 44.492 40.0822 45.668ZM38.9782 44.744C38.9782 42.428 39.5902 41.396 41.1742 40.712C41.9902 40.352 42.2302 40.064 42.2302 39.38L43.2622 39.368C43.2622 40.304 42.9382 40.976 41.9422 41.444C40.9222 41.936 40.0942 42.2 40.0222 43.928C40.4782 43.136 41.2462 42.692 42.1822 42.692C43.8742 42.692 45.0142 43.916 45.0142 45.668C45.0142 47.528 43.7662 48.692 42.0022 48.692C41.2582 48.692 40.5022 48.428 39.8902 47.768C39.2782 47.156 38.9782 46.064 38.9782 44.744ZM46.4012 44.528H50.3732V45.476H46.4012V44.528ZM56.2388 44.276C56.1068 43.448 55.4108 42.956 54.6548 42.956C53.4788 42.956 52.7948 43.844 52.7948 45.32C52.7948 46.796 53.4788 47.684 54.6548 47.684C55.4468 47.684 56.1428 47.156 56.2868 46.244L57.3548 46.316C57.1508 47.756 55.9988 48.644 54.6548 48.644C52.8788 48.644 51.7388 47.336 51.7388 45.32C51.7388 43.304 52.8788 41.996 54.6548 41.996C55.9508 41.996 57.1268 42.836 57.2948 44.204L56.2388 44.276ZM63.8407 42.14V43.028H61.5487V48.5H60.5287V43.028H58.2367V42.14H63.8407ZM64.9032 42.14H65.9832L67.8912 47.42L69.7512 42.14H70.8192L68.2392 49.304C67.9992 49.988 67.5432 50.3 66.8232 50.3H65.9952V49.412H66.7272C67.0392 49.412 67.2192 49.28 67.3392 48.968L67.5672 48.38H67.2312L64.9032 42.14ZM77.7758 42.14V47.612H78.8078V50.3H77.7998V48.5H72.5078V50.3H71.4998V47.612H72.0638C72.5678 47.612 72.8438 47.252 72.9518 46.46L73.5278 42.14H77.7758ZM73.5518 47.612H76.7678V43.028H74.4398L73.9358 46.556C73.8758 47 73.7438 47.348 73.5518 47.612ZM85.3907 42.14V48.5H84.3827V43.772L81.6827 48.5H80.4347V42.14H81.4427V46.964L84.2027 42.14H85.3907ZM86.9818 45.32C86.9818 43.304 88.1218 41.996 89.8978 41.996C91.3018 41.996 92.5498 42.92 92.6458 45.176L92.6578 45.632H88.0498C88.1458 46.928 88.8058 47.684 89.8978 47.684C90.5698 47.684 91.1938 47.288 91.4818 46.616L92.5618 46.7C92.1898 47.9 91.1098 48.644 89.8978 48.644C88.1218 48.644 86.9818 47.336 86.9818 45.32ZM88.0738 44.744H91.5538C91.3858 43.412 90.6658 42.956 89.8978 42.956C88.8898 42.956 88.2418 43.616 88.0738 44.744ZM99.3238 42.14V48.5H98.3158V43.772L95.6158 48.5H94.3678V42.14H95.3758V46.964L98.1358 42.14H99.3238ZM95.1478 39.644H95.9278C95.9278 40.088 96.3238 40.436 96.8518 40.436C97.3678 40.436 97.7638 40.088 97.7638 39.644H98.5438C98.5438 40.508 97.7998 41.18 96.8518 41.18C95.8918 41.18 95.1478 40.508 95.1478 39.644Z" fill="#FFFEFA"/>
<g clip-path="url(#clip0_1_2)">
<path d="M147.135 23.4846C147.646 23.5012 148.104 23.6519 148.474 23.9034C148.825 24.155 149.038 24.4894 149.055 24.8585C149.09 25.5288 149.144 26.1991 149.179 26.8694C149.337 29.8189 149.408 32.7835 149.408 35.7163C149.408 39.3181 149.285 42.9711 149.057 46.5576C149.039 46.9101 148.827 47.2611 148.475 47.5127C148.123 47.7642 147.646 47.9149 147.136 47.9315C139.169 48.2162 131.08 48.2162 123.095 47.9315C122.583 47.9149 122.125 47.7642 121.756 47.5127C121.404 47.2611 121.192 46.9267 121.174 46.5576C120.945 42.9559 120.823 39.3029 120.823 35.7163C120.823 32.7835 120.892 29.8189 121.052 26.8694C121.087 26.1991 121.122 25.5288 121.176 24.8585C121.193 24.506 121.406 24.1715 121.757 23.9034C122.109 23.6519 122.586 23.5012 123.096 23.4846C131.064 23.1999 139.153 23.1999 147.137 23.4846H147.135Z" fill="#D53B2F"/>
<path d="M178.56 23.4846C179.071 23.5012 179.529 23.6519 179.899 23.9034C180.251 24.155 180.463 24.4894 180.48 24.8585C180.515 25.5288 180.569 26.1991 180.604 26.8694C180.762 29.8189 180.834 32.7835 180.834 35.7163C180.834 39.3181 180.71 42.9711 180.482 46.5576C180.464 46.9101 180.252 47.2611 179.9 47.5127C179.548 47.7642 179.071 47.9149 178.561 47.9315C170.594 48.2162 162.505 48.2162 154.52 47.9315C154.008 47.9149 153.55 47.7642 153.181 47.5127C152.829 47.2611 152.617 46.9267 152.6 46.5576C152.37 42.9559 152.248 39.3029 152.248 35.7163C152.248 32.7835 152.318 29.8189 152.477 26.8694C152.512 26.1991 152.547 25.5288 152.601 24.8585C152.619 24.506 152.831 24.1715 153.183 23.9034C153.534 23.6519 154.011 23.5012 154.522 23.4846C162.489 23.1999 170.578 23.1999 178.563 23.4846H178.56Z" fill="#A3A3A3"/>
<path d="M135.114 27.8756C137.405 27.8756 139.679 27.9254 141.97 28.0263C143.398 28.0926 144.526 29.1651 144.596 30.5224C144.772 33.9735 144.772 37.426 144.596 40.8772C144.526 42.2344 143.381 43.3069 141.97 43.3733C139.679 43.4742 137.405 43.5239 135.114 43.5239C132.823 43.5239 130.549 43.4742 128.258 43.3733C126.83 43.3069 125.702 42.2344 125.632 40.8772C125.456 37.426 125.456 33.9735 125.632 30.5224C125.702 29.1651 126.847 28.0926 128.258 28.0263C130.532 27.9254 132.823 27.8756 135.114 27.8756ZM128.346 29.8023C128.117 29.8189 127.906 29.9032 127.747 30.0538C127.589 30.2045 127.5 30.4063 127.483 30.6233C127.307 33.9915 127.307 37.426 127.483 40.7942C127.5 41.0126 127.589 41.213 127.747 41.3637C127.906 41.5143 128.118 41.5986 128.346 41.6152C130.585 41.7161 132.877 41.7659 135.114 41.7659C137.352 41.7659 139.644 41.7161 141.882 41.6152C142.111 41.5986 142.322 41.5143 142.481 41.3637C142.639 41.213 142.728 41.0112 142.745 40.7942C142.921 37.426 142.921 33.9915 142.745 30.6233C142.728 30.4049 142.639 30.2045 142.481 30.0538C142.322 29.9032 142.11 29.8189 141.882 29.8023C139.643 29.7014 137.352 29.6516 135.114 29.6516C132.877 29.6516 130.584 29.7014 128.346 29.8023Z" fill="white"/>
<path d="M176.981 41.5903H176.982C177.308 41.5903 177.573 41.8419 177.573 42.1515V42.8273C177.573 43.1369 177.308 43.3884 176.982 43.3884H156.89C156.564 43.3884 156.3 43.1369 156.3 42.8273V42.1515C156.3 41.8419 156.564 41.5903 156.89 41.5903C157.216 41.5903 157.48 41.3388 157.48 41.0292V30.6302C157.553 29.2605 158.709 28.1658 160.15 28.1023H175.8C176.126 28.1023 176.391 28.3538 176.391 28.6634V41.0292C176.391 41.3388 176.655 41.5903 176.981 41.5903ZM174.499 41.0292V30.4588C174.499 30.1492 174.234 29.8976 173.909 29.8976H160.235C160.01 29.9073 159.796 29.9971 159.635 30.1492C159.473 30.3012 159.379 30.5044 159.367 30.72V41.0292C159.367 41.3388 159.632 41.5903 159.958 41.5903H173.907C174.233 41.5903 174.498 41.3388 174.498 41.0292H174.499Z" fill="white"/>
<path d="M198.764 32.8333C198.712 33.8353 197.866 34.6369 196.811 34.6825C195.118 34.7558 193.425 34.7931 191.732 34.7931C190.038 34.7931 188.346 34.7558 186.652 34.6825C185.598 34.6369 184.752 33.8353 184.699 32.8333C184.564 30.2763 184.564 27.7194 184.699 25.1611C184.752 24.1591 185.598 23.3575 186.652 23.3119C188.344 23.2386 190.038 23.2013 191.732 23.2013C193.425 23.2013 195.118 23.2386 196.811 23.3119C197.866 23.3575 198.712 24.1591 198.764 25.1611C198.899 27.718 198.899 30.2763 198.764 32.8333ZM197.381 25.2275C197.373 25.0699 197.304 24.922 197.187 24.8101C197.069 24.6981 196.913 24.6332 196.748 24.6263C195.083 24.5544 193.396 24.5171 191.732 24.5171C190.067 24.5171 188.381 24.5544 186.716 24.6263C186.55 24.6332 186.395 24.6981 186.277 24.8101C186.159 24.922 186.089 25.0699 186.082 25.2275C185.95 27.7291 185.95 30.2667 186.082 32.7683C186.091 32.9259 186.159 33.0737 186.277 33.1857C186.395 33.2976 186.55 33.3626 186.716 33.3695C188.381 33.4428 190.067 33.4787 191.732 33.4787C193.396 33.4787 195.083 33.4414 196.748 33.3695C196.913 33.3626 197.069 33.2976 197.187 33.1857C197.304 33.0737 197.374 32.9259 197.381 32.7683C197.514 30.2667 197.514 27.7305 197.381 25.2275Z" fill="#FFFEFA"/>
<path d="M214.483 24.0568V33.9376C214.483 34.2969 214.176 34.5872 213.8 34.5872H213.784C213.406 34.5872 213.1 34.2955 213.1 33.9376V30.3054C213.1 29.946 212.794 29.6558 212.417 29.6558H202.718C202.34 29.6558 202.035 29.9474 202.035 30.3054V33.9376C202.035 34.2969 201.728 34.5872 201.352 34.5872H201.336C200.958 34.5872 200.653 34.2955 200.653 33.9376V24.0568C200.653 23.6975 200.959 23.4072 201.336 23.4072H201.352C201.73 23.4072 202.035 23.6989 202.035 24.0568V27.689C202.035 28.0484 202.342 28.3386 202.718 28.3386H212.417C212.795 28.3386 213.1 28.047 213.1 27.689V24.0568C213.1 23.6975 213.407 23.4072 213.784 23.4072H213.8C214.178 23.4072 214.483 23.6989 214.483 24.0568Z" fill="#FFFEFA"/>
<path d="M232.246 25.3726V27.6904C232.246 28.0498 232.553 28.34 232.93 28.34H244.087C244.465 28.34 244.77 28.6316 244.77 28.9896V29.0048C244.77 29.3641 244.463 29.6544 244.087 29.6544H232.93C232.552 29.6544 232.246 29.946 232.246 30.304V32.6218C232.246 32.9811 232.553 33.2714 232.93 33.2714H244.087C244.465 33.2714 244.77 33.563 244.77 33.921V33.9362C244.77 34.2955 244.463 34.5858 244.087 34.5858H231.546C231.168 34.5858 230.862 34.2941 230.862 33.9362V24.0554C230.862 23.6961 231.169 23.4059 231.546 23.4059H244.087C244.465 23.4059 244.77 23.6975 244.77 24.0554V24.0706C244.77 24.43 244.463 24.7202 244.087 24.7202H232.93C232.552 24.7202 232.246 25.0119 232.246 25.3698V25.3726Z" fill="#FFFEFA"/>
<path d="M259.745 23.7058V34.2762C259.745 34.4407 259.435 34.5733 259.054 34.5733C258.673 34.5733 258.363 34.4407 258.363 34.2762V24.723H257.971L248.557 34.3909C248.45 34.5015 248.198 34.5733 247.92 34.5733H246.622C246.241 34.5733 245.932 34.4407 245.932 34.2762V23.7058C245.932 23.5413 246.241 23.4086 246.622 23.4086C247.003 23.4086 247.313 23.5413 247.313 23.7058V33.2589H247.774L257.119 23.5911C257.227 23.4805 257.478 23.4086 257.757 23.4086H259.054C259.435 23.4086 259.745 23.5413 259.745 23.7058Z" fill="#FFFEFA"/>
<path d="M259.745 37.1524V47.7228C259.745 47.8872 259.435 48.0199 259.054 48.0199C258.673 48.0199 258.363 47.8872 258.363 47.7228V38.1696H257.971L248.557 47.8375C248.45 47.948 248.198 48.0199 247.92 48.0199H246.622C246.241 48.0199 245.932 47.8872 245.932 47.7228V37.1524C245.932 36.9879 246.241 36.8552 246.622 36.8552C247.003 36.8552 247.313 36.9879 247.313 37.1524V46.7055H247.774L257.119 37.0376C257.227 36.9271 257.478 36.8552 257.757 36.8552H259.054C259.435 36.8552 259.745 36.9879 259.745 37.1524Z" fill="#FFFEFA"/>
<path d="M250.896 21.6644H250.958C251.164 21.6644 251.346 21.7736 251.458 21.938C251.487 21.9795 251.519 22.0182 251.557 22.0541C251.689 22.1813 251.866 22.2559 252.054 22.2642H253.444C253.631 22.2559 253.807 22.1813 253.941 22.0541C253.979 22.0182 254.011 21.9795 254.04 21.938C254.152 21.7736 254.333 21.663 254.54 21.6644H254.602C255.049 21.6644 255.323 22.1274 255.097 22.495C254.774 23.0189 254.189 23.3754 253.506 23.41H251.991C251.309 23.3768 250.725 23.0202 250.402 22.4964C250.175 22.1302 250.449 21.6672 250.896 21.6658V21.6644Z" fill="#D53B2F"/>
<path d="M274.74 24.0568V33.9376C274.74 34.2969 274.433 34.5872 274.056 34.5872H274.04C273.662 34.5872 273.357 34.2955 273.357 33.9376V25.3726C273.357 25.0133 273.05 24.723 272.674 24.723H262.975C262.597 24.723 262.292 25.0146 262.292 25.3726V33.9376C262.292 34.2969 261.985 34.5872 261.609 34.5872H261.593C261.215 34.5872 260.909 34.2955 260.909 33.9376V24.7216H260.908V24.0568C260.908 23.6975 261.215 23.4072 261.591 23.4072H274.059C274.437 23.4072 274.743 23.6989 274.743 24.0568H274.74Z" fill="#FFFEFA"/>
<path d="M199.081 46.718C199.319 46.718 199.513 46.9018 199.513 47.1285V47.6233C199.513 47.8499 199.319 48.0337 199.081 48.0337H184.381C184.143 48.0337 183.949 47.8499 183.949 47.6233V47.1285C183.949 46.9018 184.143 46.718 184.381 46.718C184.619 46.718 184.813 46.5341 184.813 46.3075V38.6989C184.865 37.6969 185.711 36.8953 186.765 36.8497H198.216C198.454 36.8497 198.648 37.0335 198.648 37.2602V46.3075C198.648 46.5341 198.841 46.718 199.079 46.718H199.081ZM197.265 46.3075V38.5746C197.265 38.3479 197.072 38.1641 196.833 38.1641H186.829C186.664 38.171 186.508 38.2359 186.39 38.3479C186.272 38.4598 186.203 38.6077 186.195 38.7653V46.3075C186.195 46.5341 186.389 46.718 186.627 46.718H196.833C197.072 46.718 197.265 46.5341 197.265 46.3075Z" fill="#FFFEFA"/>
<path d="M214.485 37.5076V47.3759C214.485 47.738 214.175 48.0324 213.794 48.0324H213.791C213.41 48.0324 213.1 47.738 213.1 47.3759V38.1668H212.708L203.306 47.8223C203.175 47.9563 202.992 48.0324 202.798 48.0324H201.337C200.956 48.0324 200.647 47.738 200.647 47.3759V37.5076C200.647 37.1454 200.956 36.8511 201.337 36.8511H201.34C201.721 36.8511 202.031 37.1454 202.031 37.5076V46.7166H202.493L211.827 37.0639C211.958 36.9285 212.142 36.8511 212.336 36.8511H213.795C214.176 36.8511 214.486 37.1454 214.486 37.5076H214.485Z" fill="#FFFEFA"/>
<path d="M229.17 41.8405C229.468 42.1611 229.657 42.5772 229.682 43.0333V46.3531C229.629 47.3551 228.783 48.1567 227.729 48.2024C226.035 48.277 224.401 48.3129 222.708 48.3129C221.014 48.3129 219.322 48.2756 217.628 48.2024C216.572 48.1567 215.728 47.351 215.675 46.3476C215.669 46.2301 215.664 46.114 215.658 45.9965C215.64 45.6233 215.956 45.3124 216.35 45.3124C216.719 45.3124 217.024 45.5888 217.04 45.9385C217.046 46.0476 217.051 46.1568 217.056 46.2674C217.062 46.378 217.088 46.4802 217.145 46.5728C217.263 46.765 217.469 46.8797 217.692 46.8893C219.356 46.9626 221.043 46.9985 222.708 46.9985C224.372 46.9985 226.001 46.9612 227.665 46.8893C227.831 46.8824 227.987 46.8175 228.104 46.7055C228.222 46.5936 228.292 46.4457 228.299 46.2881V43.0996C228.29 42.942 228.222 42.7941 228.104 42.6822C227.987 42.5702 227.831 42.5053 227.665 42.4984L220.861 42.5163C220.479 42.5163 220.168 42.222 220.168 41.8585V41.8419C220.168 41.4784 220.477 41.184 220.86 41.184H227.667C227.831 41.1757 227.987 41.1107 228.103 41.0002C228.221 40.8882 228.29 40.7403 228.298 40.5828V38.7473C228.29 38.5898 228.222 38.4419 228.104 38.3299C227.987 38.218 227.831 38.153 227.665 38.1461C226.001 38.0728 224.372 38.0369 222.708 38.0369C221.043 38.0369 219.371 38.0728 217.714 38.1461C217.602 38.1516 217.49 38.1751 217.394 38.229C217.192 38.341 217.07 38.5359 217.058 38.7487C217.052 38.8634 217.046 38.9781 217.04 39.0928C217.023 39.4439 216.719 39.7203 216.35 39.7203C215.957 39.7203 215.64 39.4094 215.658 39.0362C215.664 38.9201 215.669 38.804 215.675 38.6879C215.728 37.6845 216.572 36.8787 217.628 36.8331C219.322 36.7598 221.014 36.7225 222.708 36.7225C224.401 36.7225 226.035 36.7598 227.729 36.8331C228.783 36.8787 229.629 37.6803 229.682 38.6824V40.6491C229.656 41.1052 229.468 41.5198 229.17 41.8405Z" fill="#FFFEFA"/>
<path d="M274.74 37.5006V47.4408C274.74 47.8002 274.433 48.0904 274.056 48.0904H274.04C273.662 48.0904 273.357 47.7988 273.357 47.4408V43.7824C273.357 43.423 273.05 43.1328 272.674 43.1328H262.975C262.597 43.1328 262.292 43.4244 262.292 43.7824V47.4408C262.292 47.8002 261.985 48.0904 261.609 48.0904H261.593C261.215 48.0904 260.909 47.7988 260.909 47.4408V37.5006C260.909 37.1413 261.216 36.8511 261.593 36.8511H261.609C261.987 36.8511 262.292 37.1427 262.292 37.5006V41.1591C262.292 41.5185 262.599 41.8087 262.975 41.8087H272.674C273.052 41.8087 273.357 41.5171 273.357 41.1591V37.5006C273.357 37.1413 273.664 36.8511 274.04 36.8511H274.056C274.434 36.8511 274.74 37.1427 274.74 37.5006Z" fill="#FFFEFA"/>
<path d="M229.017 23.4045H216.583C216.204 23.4045 215.899 23.6961 215.899 24.0541C215.899 24.412 216.203 24.7023 216.58 24.7037L221.414 24.7216C221.79 24.723 222.094 25.0133 222.094 25.3712V33.9389C222.094 34.2983 222.401 34.5885 222.777 34.5885H222.793C223.171 34.5885 223.477 34.2969 223.477 33.9389V25.3712C223.477 25.0133 223.781 24.723 224.157 24.7216L229.017 24.7037C229.394 24.7023 229.698 24.412 229.698 24.0541C229.698 23.6947 229.391 23.4045 229.014 23.4045H229.017Z" fill="#FFFEFA"/>
<path d="M244.044 36.8511H242.583C242.391 36.8511 242.207 36.9271 242.076 37.0611L231.053 46.9239C230.829 47.1132 230.737 47.4173 230.852 47.6799C231.045 48.1236 231.617 48.2314 231.97 47.9342L235.866 44.2412C236.047 44.0892 236.281 44.0063 236.521 44.0063H242.756C243.083 44.0063 243.349 44.2592 243.349 44.5702V47.4339C243.349 47.796 243.659 48.0904 244.04 48.0904H244.043C244.424 48.0904 244.734 47.796 244.734 47.4339V37.5076C244.734 37.1454 244.424 36.8511 244.043 36.8511H244.044ZM238.31 42.1943L242.877 38.2235C242.929 38.1793 242.996 38.1558 243.066 38.1558C243.223 38.1558 243.351 38.2774 243.351 38.4267V42.3975C243.351 42.5467 243.223 42.6684 243.066 42.6684H238.499C238.236 42.6684 238.114 42.3588 238.31 42.1943Z" fill="#FFFEFA"/>
<path d="M254.604 50.4068H254.543C254.336 50.4068 254.155 50.2976 254.043 50.1332C254.014 50.0917 253.982 50.053 253.944 50.0171C253.811 49.8899 253.634 49.8153 253.447 49.807H252.057C251.869 49.8153 251.693 49.8899 251.559 50.0171C251.522 50.053 251.49 50.0917 251.461 50.1332C251.349 50.2976 251.167 50.4082 250.96 50.4068H250.898C250.452 50.4068 250.177 49.9438 250.404 49.5762C250.726 49.0524 251.311 48.6958 251.994 48.6612H253.509C254.191 48.6944 254.775 49.051 255.098 49.5748C255.325 49.9411 255.052 50.4041 254.604 50.4054V50.4068Z" fill="#D53B2F"/>
</g>
<defs>
<clipPath id="clip0_1_2">
<rect width="154" height="34" fill="white" transform="translate(121 19.5)"/>
</clipPath>
</defs>
</svg>
