<?xml version="1.0" encoding="UTF-8"?>
<svg id="_Слой_1" data-name="Слой 1" xmlns="http://www.w3.org/2000/svg" viewBox="0 0 1115.23 627.31">
  <defs>
    <style>
      .cls-1 {
        fill: #fff;
      }

      .cls-2 {
        fill: #a3a3a3;
      }

      .cls-3 {
        fill: #d53b2f;
      }
    </style>
  </defs>
  <path class="cls-3" d="M207.52,241.52c3.52.12,6.67,1.21,9.21,3.03,2.42,1.82,3.88,4.24,4,6.91.24,4.85.61,9.7.85,14.55,1.09,21.34,1.58,42.79,1.58,64.01,0,26.06-.85,52.49-2.42,78.44-.12,2.55-1.58,5.09-4,6.91-2.42,1.82-5.7,2.91-9.21,3.03-54.8,2.06-110.44,2.06-165.36,0-3.52-.12-6.67-1.21-9.21-3.03-2.42-1.82-3.88-4.24-4-6.91-1.58-26.06-2.42-52.49-2.42-78.44,0-21.22.48-42.67,1.58-64.01.24-4.85.48-9.7.85-14.55.12-2.55,1.58-4.97,4-6.91,2.42-1.82,5.7-2.91,9.21-3.03,54.8-2.06,110.44-2.06,165.36,0Z"/>
  <path class="cls-2" d="M423.67,241.52c3.52.12,6.67,1.21,9.21,3.03,2.42,1.82,3.88,4.24,4,6.91.24,4.85.61,9.7.85,14.55,1.09,21.34,1.58,42.79,1.58,64.01,0,26.06-.85,52.49-2.42,78.44-.12,2.55-1.58,5.09-4,6.91-2.42,1.82-5.7,2.91-9.21,3.03-54.8,2.06-110.44,2.06-165.36,0-3.52-.12-6.67-1.21-9.21-3.03-2.42-1.82-3.88-4.24-4-6.91-1.58-26.06-2.42-52.49-2.42-78.44,0-21.22.48-42.67,1.58-64.01.24-4.85.48-9.7.85-14.55.12-2.55,1.58-4.97,4-6.91,2.42-1.82,5.7-2.91,9.21-3.03,54.8-2.06,110.44-2.06,165.36,0Z"/>
  <path class="cls-1" d="M124.84,273.29c15.76,0,31.4.36,47.16,1.09,9.82.48,17.58,8.24,18.06,18.06,1.21,24.97,1.21,49.95,0,74.92-.48,9.82-8.36,17.58-18.06,18.06-15.76.73-31.4,1.09-47.16,1.09s-31.4-.36-47.16-1.09c-9.82-.48-17.58-8.24-18.06-18.06-1.21-24.97-1.21-49.95,0-74.92.48-9.82,8.36-17.58,18.06-18.06,15.64-.73,31.4-1.09,47.16-1.09ZM78.29,287.23c-1.58.12-3.03.73-4.12,1.82s-1.7,2.55-1.82,4.12c-1.21,24.37-1.21,49.22,0,73.59.12,1.58.73,3.03,1.82,4.12,1.09,1.09,2.55,1.7,4.12,1.82,15.4.73,31.16,1.09,46.55,1.09s31.16-.36,46.55-1.09c1.58-.12,3.03-.73,4.12-1.82,1.09-1.09,1.7-2.55,1.82-4.12,1.21-24.37,1.21-49.22,0-73.59-.12-1.58-.73-3.03-1.82-4.12-1.09-1.09-2.55-1.7-4.12-1.82-15.4-.73-31.16-1.09-46.55-1.09s-31.16.36-46.55,1.09Z"/>
  <path class="cls-1" d="M412.81,372.52h.01c2.24,0,4.06,1.82,4.06,4.06v4.89c0,2.24-1.82,4.06-4.06,4.06h-138.2c-2.24,0-4.06-1.82-4.06-4.06v-4.89c0-2.24,1.82-4.06,4.06-4.06h0c2.24,0,4.06-1.82,4.06-4.06v-75.24c.5-9.91,8.45-17.83,18.36-18.29h107.65c2.24,0,4.06,1.82,4.06,4.06v89.47c0,2.24,1.82,4.06,4.06,4.06ZM395.74,368.46v-76.48c0-2.24-1.82-4.06-4.06-4.06h-94.05c-1.55.07-3.02.72-4.13,1.82-1.11,1.1-1.76,2.57-1.84,4.13v74.59c0,2.24,1.82,4.06,4.06,4.06h95.95c2.24,0,4.06-1.82,4.06-4.06Z"/>
  <g>
    <path d="M562.64,309.16c-.36,7.25-6.18,13.05-13.43,13.38-11.65.53-23.29.8-34.94.8s-23.29-.27-34.94-.8c-7.25-.33-13.07-6.13-13.43-13.38-.93-18.5-.93-37,0-55.51.36-7.25,6.18-13.05,13.43-13.38,11.64-.53,23.29-.8,34.94-.8s23.29.27,34.94.8c7.25.33,13.07,6.13,13.43,13.38.93,18.5.93,37.01,0,55.51ZM553.13,254.13c-.06-1.14-.53-2.21-1.34-3.02-.81-.81-1.88-1.28-3.02-1.33-11.45-.52-23.05-.79-34.5-.79s-23.05.27-34.5.79c-1.14.05-2.21.52-3.02,1.33-.81.81-1.29,1.88-1.34,3.02-.91,18.1-.91,36.46,0,54.56.06,1.14.53,2.21,1.34,3.02.81.81,1.88,1.28,3.02,1.33,11.45.53,23.05.79,34.5.79s23.05-.27,34.5-.79c1.14-.05,2.21-.52,3.02-1.33.81-.81,1.29-1.88,1.34-3.02.91-18.1.91-36.45,0-54.56Z"/>
    <path d="M670.76,245.66v71.49c0,2.6-2.11,4.7-4.7,4.7h-.11c-2.6,0-4.7-2.11-4.7-4.7v-26.28c0-2.6-2.11-4.7-4.7-4.7h-66.71c-2.6,0-4.7,2.11-4.7,4.7v26.28c0,2.6-2.11,4.7-4.7,4.7h-.11c-2.6,0-4.7-2.11-4.7-4.7v-71.49c0-2.6,2.11-4.7,4.7-4.7h.11c2.6,0,4.7,2.11,4.7,4.7v26.28c0,2.6,2.11,4.7,4.7,4.7h66.71c2.6,0,4.7-2.11,4.7-4.7v-26.28c0-2.6,2.11-4.7,4.7-4.7h.11c2.6,0,4.7,2.11,4.7,4.7Z"/>
    <path d="M792.94,255.18v16.77c0,2.6,2.11,4.7,4.7,4.7h76.74c2.6,0,4.7,2.11,4.7,4.7v.11c0,2.6-2.11,4.7-4.7,4.7h-76.74c-2.6,0-4.7,2.11-4.7,4.7v16.77c0,2.6,2.11,4.7,4.7,4.7h76.74c2.6,0,4.7,2.11,4.7,4.7v.11c0,2.6-2.11,4.7-4.7,4.7h-86.26c-2.6,0-4.7-2.11-4.7-4.7v-71.49c0-2.6,2.11-4.7,4.7-4.7h86.26c2.6,0,4.7,2.11,4.7,4.7v.11c0,2.6-2.11,4.7-4.7,4.7h-76.74c-2.6,0-4.7,2.11-4.7,4.7Z"/>
    <path d="M982.08,243.12v76.48c0,1.19-2.13,2.15-4.75,2.15h0c-2.62,0-4.75-.96-4.75-2.15v-69.12h-2.7l-64.75,69.95c-.74.8-2.47,1.32-4.38,1.32h-8.93c-2.62,0-4.75-.96-4.75-2.15v-76.48c0-1.19,2.13-2.15,4.75-2.15h0c2.62,0,4.75.96,4.75,2.15v69.12h3.17l64.28-69.95c.74-.8,2.47-1.32,4.39-1.32h8.92c2.62,0,4.75.96,4.75,2.15Z"/>
    <path d="M982.08,340.41v76.48c0,1.19-2.13,2.15-4.75,2.15h0c-2.62,0-4.75-.96-4.75-2.15v-69.12h-2.7l-64.75,69.95c-.74.8-2.47,1.32-4.38,1.32h-8.93c-2.62,0-4.75-.96-4.75-2.15v-76.48c0-1.19,2.13-2.15,4.75-2.15h0c2.62,0,4.75.96,4.75,2.15v69.12h3.17l64.28-69.95c.74-.8,2.47-1.32,4.39-1.32h8.92c2.62,0,4.75.96,4.75,2.15Z"/>
    <path class="cls-3" d="M921.22,228.35h.42c1.42,0,2.67.79,3.44,1.98.2.3.42.58.68.84.91.92,2.13,1.46,3.42,1.52h9.56c1.29-.06,2.5-.6,3.42-1.52.26-.26.48-.54.68-.84.77-1.19,2.02-1.99,3.44-1.98h.43c3.07,0,4.96,3.35,3.4,6.01-2.22,3.79-6.24,6.37-10.94,6.62h-10.42c-4.69-.24-8.71-2.82-10.93-6.61-1.56-2.65.32-6,3.4-6.01Z"/>
    <path d="M1085.22,245.66v71.49c0,2.6-2.11,4.7-4.7,4.7h-.11c-2.6,0-4.7-2.11-4.7-4.7v-61.97c0-2.6-2.11-4.7-4.7-4.7h-66.71c-2.6,0-4.7,2.11-4.7,4.7v61.97c0,2.6-2.11,4.7-4.7,4.7h-.11c-2.6,0-4.7-2.11-4.7-4.7v-66.68h-.01v-4.81c0-2.6,2.11-4.7,4.7-4.7h85.76c2.6,0,4.7,2.11,4.7,4.7Z"/>
    <path d="M564.82,409.62h0c1.64,0,2.97,1.33,2.97,2.97v3.58c0,1.64-1.33,2.97-2.97,2.97h-101.11c-1.64,0-2.97-1.33-2.97-2.97v-3.58c0-1.64,1.33-2.97,2.97-2.97h0c1.64,0,2.97-1.33,2.97-2.97v-55.05c.36-7.25,6.18-13.05,13.43-13.38h78.76c1.64,0,2.97,1.33,2.97,2.97v65.46c0,1.64,1.33,2.97,2.97,2.97ZM552.33,406.65v-55.95c0-1.64-1.33-2.97-2.97-2.97h-68.81c-1.14.05-2.21.52-3.02,1.33-.81.81-1.29,1.88-1.34,3.02v54.57c0,1.64,1.33,2.97,2.97,2.97h70.2c1.64,0,2.97-1.33,2.97-2.97Z"/>
    <path d="M670.77,342.98v71.4c0,2.62-2.13,4.75-4.75,4.75h-.02c-2.62,0-4.75-2.13-4.75-4.75v-66.63h-2.7l-64.67,69.86c-.9.97-2.16,1.52-3.49,1.52h-10.05c-2.62,0-4.75-2.13-4.75-4.75v-71.4c0-2.62,2.13-4.75,4.75-4.75h.02c2.62,0,4.75,2.13,4.75,4.75v66.63h3.18l64.2-69.84c.9-.98,2.17-1.54,3.5-1.54h10.04c2.62,0,4.75,2.13,4.75,4.75Z"/>
    <path d="M771.78,374.33c2.05,2.32,3.35,5.33,3.52,8.63v24.02c-.36,7.25-6.18,13.05-13.43,13.38-11.65.54-22.89.8-34.54.8s-23.29-.27-34.94-.8c-7.26-.33-13.07-6.16-13.43-13.42-.04-.85-.08-1.69-.12-2.54-.12-2.7,2.05-4.95,4.76-4.95h0c2.54,0,4.64,2,4.75,4.53.04.79.07,1.58.11,2.38s.22,1.54.61,2.21c.81,1.39,2.23,2.22,3.76,2.29,11.45.53,23.05.79,34.5.79s22.65-.27,34.1-.79c1.14-.05,2.21-.52,3.02-1.33s1.29-1.88,1.34-3.02v-23.07c-.06-1.14-.53-2.21-1.34-3.02-.81-.81-1.88-1.28-3.02-1.33l-46.8.13c-2.63,0-4.77-2.13-4.77-4.76v-.12c0-2.63,2.13-4.76,4.76-4.76h46.82c1.13-.06,2.2-.53,3-1.33.81-.81,1.29-1.88,1.34-3.02v-13.28c-.05-1.14-.52-2.21-1.33-3.02-.81-.81-1.88-1.28-3.02-1.33-11.45-.53-22.65-.79-34.1-.79s-22.95.26-34.35.79c-.77.04-1.54.21-2.2.6-1.39.81-2.23,2.22-2.31,3.76-.04.83-.08,1.66-.12,2.49-.12,2.54-2.21,4.54-4.75,4.54h0c-2.7,0-4.88-2.25-4.76-4.95.04-.84.08-1.68.12-2.52.36-7.26,6.17-13.09,13.43-13.42,11.65-.53,23.29-.8,34.94-.8s22.89.27,34.54.8c7.25.33,13.07,6.13,13.43,13.38v14.23c-.18,3.3-1.47,6.3-3.52,8.62Z"/>
    <path d="M1085.22,342.93v71.92c0,2.6-2.11,4.7-4.7,4.7h-.11c-2.6,0-4.7-2.11-4.7-4.7v-26.47c0-2.6-2.11-4.7-4.7-4.7h-66.71c-2.6,0-4.7,2.11-4.7,4.7v26.47c0,2.6-2.11,4.7-4.7,4.7h-.11c-2.6,0-4.7-2.11-4.7-4.7v-71.92c0-2.6,2.11-4.7,4.7-4.7h.11c2.6,0,4.7,2.11,4.7,4.7v26.47c0,2.6,2.11,4.7,4.7,4.7h66.71c2.6,0,4.7-2.11,4.7-4.7v-26.47c0-2.6,2.11-4.7,4.7-4.7h.11c2.6,0,4.7,2.11,4.7,4.7Z"/>
    <path d="M770.73,240.94h-85.53c-2.6,0-4.7,2.11-4.7,4.7h0c0,2.59,2.09,4.69,4.68,4.7l33.25.13c2.59.01,4.68,2.11,4.68,4.7v61.99c0,2.6,2.11,4.7,4.7,4.7h.11c2.6,0,4.7-2.11,4.7-4.7v-61.99c0-2.59,2.09-4.69,4.68-4.7l33.43-.13c2.59-.01,4.68-2.11,4.68-4.7h0c0-2.6-2.11-4.7-4.7-4.7Z"/>
    <path d="M874.09,338.23h-10.05c-1.32,0-2.59.55-3.49,1.52l-75.82,71.36c-1.54,1.37-2.17,3.57-1.38,5.47,1.33,3.21,5.26,3.99,7.69,1.84l26.8-26.72c1.24-1.1,2.85-1.7,4.5-1.7h42.89c2.25,0,4.08,1.83,4.08,4.08v20.72c0,2.62,2.13,4.75,4.75,4.75h.02c2.62,0,4.75-2.13,4.75-4.75v-71.82c0-2.62-2.13-4.75-4.75-4.75ZM834.65,376.89l31.41-28.73c.36-.32.82-.49,1.3-.49h0c1.08,0,1.96.88,1.96,1.96v28.73c0,1.08-.88,1.96-1.96,1.96h-31.41c-1.81,0-2.65-2.24-1.3-3.43Z"/>
    <path class="cls-3" d="M946.72,436.31h-.42c-1.42,0-2.67-.79-3.44-1.98-.2-.3-.42-.58-.68-.84-.91-.92-2.13-1.46-3.42-1.52h-9.56c-1.29.06-2.5.6-3.42,1.52-.26.26-.48.54-.68.84-.77,1.19-2.02,1.99-3.44,1.98h-.43c-3.07,0-4.96-3.35-3.4-6.01,2.22-3.79,6.24-6.37,10.94-6.62h10.42c4.69.24,8.71,2.82,10.93,6.61,1.56,2.65-.32,6-3.4,6.01Z"/>
  </g>
</svg>