<svg width="301" height="73" viewBox="0 0 301 73" fill="none" xmlns="http://www.w3.org/2000/svg">
<rect width="301" height="73" rx="16" fill="#171A22"/>
<path d="M25.104 32.5V23.98H28.164C29.116 23.98 29.856 24.208 30.384 24.664C30.912 25.12 31.176 25.752 31.176 26.56C31.176 27.104 31.056 27.576 30.816 27.976C30.576 28.368 30.232 28.668 29.784 28.876C29.336 29.084 28.796 29.188 28.164 29.188H26.136V32.5H25.104ZM26.136 28.18H28.164C28.804 28.18 29.284 28.044 29.604 27.772C29.932 27.5 30.096 27.096 30.096 26.56C30.096 26.04 29.932 25.648 29.604 25.384C29.284 25.12 28.804 24.988 28.164 24.988H26.136V28.18ZM34.4512 32.644C33.7952 32.644 33.2712 32.492 32.8792 32.188C32.4952 31.884 32.3032 31.46 32.3032 30.916C32.3032 30.372 32.4632 29.944 32.7832 29.632C33.1032 29.32 33.6112 29.1 34.3072 28.972L36.5632 28.552C36.5632 28.016 36.4352 27.616 36.1792 27.352C35.9312 27.088 35.5552 26.956 35.0512 26.956C34.6112 26.956 34.2632 27.056 34.0072 27.256C33.7512 27.448 33.5752 27.728 33.4792 28.096L32.4112 28.012C32.5312 27.412 32.8192 26.928 33.2752 26.56C33.7392 26.184 34.3312 25.996 35.0512 25.996C35.8672 25.996 36.4912 26.228 36.9232 26.692C37.3552 27.148 37.5712 27.78 37.5712 28.588V31.216C37.5712 31.36 37.5952 31.464 37.6432 31.528C37.6992 31.584 37.7872 31.612 37.9072 31.612H38.1592V32.5C38.1272 32.508 38.0752 32.512 38.0032 32.512C37.9312 32.52 37.8552 32.524 37.7752 32.524C37.4872 32.524 37.2512 32.48 37.0672 32.392C36.8912 32.296 36.7632 32.152 36.6832 31.96C36.6032 31.76 36.5632 31.5 36.5632 31.18L36.6832 31.204C36.6272 31.476 36.4912 31.724 36.2752 31.948C36.0592 32.164 35.7912 32.336 35.4712 32.464C35.1512 32.584 34.8112 32.644 34.4512 32.644ZM34.5472 31.756C34.9712 31.756 35.3312 31.676 35.6272 31.516C35.9312 31.348 36.1632 31.124 36.3232 30.844C36.4832 30.556 36.5632 30.236 36.5632 29.884V29.428L34.4992 29.812C34.0672 29.892 33.7672 30.016 33.5992 30.184C33.4392 30.344 33.3592 30.556 33.3592 30.82C33.3592 31.116 33.4632 31.348 33.6712 31.516C33.8872 31.676 34.1792 31.756 34.5472 31.756ZM41.7702 32.644C41.2582 32.644 40.8062 32.568 40.4142 32.416C40.0302 32.256 39.7302 32.032 39.5142 31.744C39.2982 31.456 39.1782 31.116 39.1542 30.724L40.2102 30.676C40.2342 30.98 40.3862 31.224 40.6662 31.408C40.9462 31.592 41.3142 31.684 41.7702 31.684C42.2422 31.684 42.6182 31.596 42.8982 31.42C43.1782 31.244 43.3182 31.008 43.3182 30.712C43.3182 30.36 43.1862 30.088 42.9222 29.896C42.6662 29.696 42.3222 29.6 41.8902 29.608L41.2302 29.62V28.66L41.8902 28.672C42.2582 28.68 42.5502 28.604 42.7662 28.444C42.9902 28.276 43.1022 28.056 43.1022 27.784C43.1022 27.528 42.9822 27.328 42.7422 27.184C42.5022 27.032 42.1782 26.956 41.7702 26.956C41.4022 26.956 41.1022 27.024 40.8702 27.16C40.6382 27.296 40.5062 27.48 40.4742 27.712L39.3822 27.652C39.4462 27.14 39.6902 26.736 40.1142 26.44C40.5462 26.144 41.0982 25.996 41.7702 25.996C42.5062 25.996 43.0862 26.156 43.5102 26.476C43.9422 26.796 44.1582 27.232 44.1582 27.784C44.1582 28.128 44.0102 28.424 43.7142 28.672C43.4262 28.912 43.0302 29.076 42.5262 29.164L42.5382 29.008C43.1062 29.104 43.5542 29.312 43.8822 29.632C44.2102 29.944 44.3742 30.324 44.3742 30.772C44.3742 31.348 44.1382 31.804 43.6662 32.14C43.2022 32.476 42.5702 32.644 41.7702 32.644ZM46.0589 34.3V26.14H46.9949L47.0189 27.508L46.8749 27.436C47.0349 26.964 47.2989 26.608 47.6669 26.368C48.0429 26.12 48.4749 25.996 48.9629 25.996C49.5949 25.996 50.1109 26.152 50.5109 26.464C50.9189 26.776 51.2189 27.184 51.4109 27.688C51.6109 28.192 51.7109 28.736 51.7109 29.32C51.7109 29.904 51.6109 30.448 51.4109 30.952C51.2189 31.456 50.9189 31.864 50.5109 32.176C50.1109 32.488 49.5949 32.644 48.9629 32.644C48.6349 32.644 48.3269 32.588 48.0389 32.476C47.7589 32.364 47.5189 32.208 47.3189 32.008C47.1269 31.808 46.9949 31.572 46.9229 31.3L47.0669 31.132V34.3H46.0589ZM48.8669 31.684C49.4189 31.684 49.8549 31.476 50.1749 31.06C50.4949 30.644 50.6549 30.064 50.6549 29.32C50.6549 28.576 50.4949 27.996 50.1749 27.58C49.8549 27.164 49.4189 26.956 48.8669 26.956C48.4989 26.956 48.1789 27.044 47.9069 27.22C47.6429 27.396 47.4349 27.66 47.2829 28.012C47.1389 28.364 47.0669 28.8 47.0669 29.32C47.0669 29.84 47.1389 30.276 47.2829 30.628C47.4269 30.98 47.6349 31.244 47.9069 31.42C48.1789 31.596 48.4989 31.684 48.8669 31.684ZM55.1985 32.644C54.5425 32.644 54.0185 32.492 53.6265 32.188C53.2425 31.884 53.0505 31.46 53.0505 30.916C53.0505 30.372 53.2105 29.944 53.5305 29.632C53.8505 29.32 54.3585 29.1 55.0545 28.972L57.3105 28.552C57.3105 28.016 57.1825 27.616 56.9265 27.352C56.6785 27.088 56.3025 26.956 55.7985 26.956C55.3585 26.956 55.0105 27.056 54.7545 27.256C54.4985 27.448 54.3225 27.728 54.2265 28.096L53.1585 28.012C53.2785 27.412 53.5665 26.928 54.0225 26.56C54.4865 26.184 55.0785 25.996 55.7985 25.996C56.6145 25.996 57.2385 26.228 57.6705 26.692C58.1025 27.148 58.3185 27.78 58.3185 28.588V31.216C58.3185 31.36 58.3425 31.464 58.3905 31.528C58.4465 31.584 58.5345 31.612 58.6545 31.612H58.9065V32.5C58.8745 32.508 58.8225 32.512 58.7505 32.512C58.6785 32.52 58.6025 32.524 58.5225 32.524C58.2345 32.524 57.9985 32.48 57.8145 32.392C57.6385 32.296 57.5105 32.152 57.4305 31.96C57.3505 31.76 57.3105 31.5 57.3105 31.18L57.4305 31.204C57.3745 31.476 57.2385 31.724 57.0225 31.948C56.8065 32.164 56.5385 32.336 56.2185 32.464C55.8985 32.584 55.5585 32.644 55.1985 32.644ZM55.2945 31.756C55.7185 31.756 56.0785 31.676 56.3745 31.516C56.6785 31.348 56.9105 31.124 57.0705 30.844C57.2305 30.556 57.3105 30.236 57.3105 29.884V29.428L55.2465 29.812C54.8145 29.892 54.5145 30.016 54.3465 30.184C54.1865 30.344 54.1065 30.556 54.1065 30.82C54.1065 31.116 54.2105 31.348 54.4185 31.516C54.6345 31.676 54.9265 31.756 55.2945 31.756ZM62.8656 32.692C62.4976 32.692 62.1296 32.62 61.7616 32.476C61.3936 32.332 61.0576 32.096 60.7536 31.768C60.4496 31.464 60.2216 31.048 60.0696 30.52C59.9176 29.992 59.8416 29.4 59.8416 28.744C59.8416 27.968 59.9136 27.324 60.0576 26.812C60.2016 26.3 60.4336 25.88 60.7536 25.552C61.0816 25.216 61.5096 24.936 62.0376 24.712C62.3096 24.592 62.5216 24.476 62.6736 24.364C62.8256 24.244 62.9336 24.108 62.9976 23.956C63.0616 23.796 63.0936 23.604 63.0936 23.38L64.1256 23.368C64.1256 23.832 64.0296 24.236 63.8376 24.58C63.6456 24.924 63.3016 25.212 62.8056 25.444C62.5336 25.572 62.2776 25.7 62.0376 25.828C61.7976 25.956 61.5856 26.12 61.4016 26.32C61.2256 26.512 61.0896 26.772 60.9936 27.1C60.9056 27.428 60.8696 27.86 60.8856 28.396L60.6816 28.372C60.8176 28.012 60.9976 27.708 61.2216 27.46C61.4536 27.212 61.7256 27.024 62.0376 26.896C62.3496 26.76 62.6856 26.692 63.0456 26.692C63.6136 26.692 64.1096 26.82 64.5336 27.076C64.9576 27.324 65.2856 27.672 65.5176 28.12C65.7576 28.568 65.8776 29.084 65.8776 29.668C65.8776 30.284 65.7496 30.82 65.4936 31.276C65.2376 31.732 64.8816 32.084 64.4256 32.332C63.9776 32.572 63.4576 32.692 62.8656 32.692ZM62.8896 31.732C63.2656 31.732 63.5976 31.644 63.8856 31.468C64.1816 31.292 64.4096 31.048 64.5696 30.736C64.7376 30.424 64.8216 30.068 64.8216 29.668C64.8216 29.276 64.7416 28.928 64.5816 28.624C64.4296 28.32 64.2136 28.084 63.9336 27.916C63.6536 27.74 63.3336 27.652 62.9736 27.652C62.5816 27.652 62.2336 27.74 61.9296 27.916C61.6256 28.084 61.3856 28.32 61.2096 28.624C61.0416 28.928 60.9536 29.276 60.9456 29.668C60.9376 30.068 61.0136 30.424 61.1736 30.736C61.3416 31.048 61.5736 31.292 61.8696 31.468C62.1656 31.644 62.5056 31.732 62.8896 31.732ZM69.9817 32.644C69.3977 32.644 68.8857 32.508 68.4457 32.236C68.0057 31.964 67.6657 31.58 67.4257 31.084C67.1857 30.58 67.0657 29.992 67.0657 29.32C67.0657 28.64 67.1857 28.052 67.4257 27.556C67.6657 27.06 68.0057 26.676 68.4457 26.404C68.8857 26.132 69.3977 25.996 69.9817 25.996C70.5657 25.996 71.0737 26.132 71.5057 26.404C71.9457 26.676 72.2857 27.06 72.5257 27.556C72.7657 28.052 72.8857 28.64 72.8857 29.32C72.8857 29.992 72.7657 30.58 72.5257 31.084C72.2857 31.58 71.9457 31.964 71.5057 32.236C71.0737 32.508 70.5657 32.644 69.9817 32.644ZM69.9817 31.684C70.5657 31.684 71.0177 31.476 71.3377 31.06C71.6657 30.636 71.8297 30.056 71.8297 29.32C71.8297 28.584 71.6657 28.008 71.3377 27.592C71.0177 27.168 70.5657 26.956 69.9817 26.956C69.3977 26.956 68.9417 27.168 68.6137 27.592C68.2857 28.008 68.1217 28.584 68.1217 29.32C68.1217 30.056 68.2857 30.636 68.6137 31.06C68.9417 31.476 69.3977 31.684 69.9817 31.684ZM76.1493 32.5V27.028H73.8573V26.14H79.4613V27.028H77.1693V32.5H76.1493ZM82.4202 32.644C81.7642 32.644 81.2402 32.492 80.8482 32.188C80.4642 31.884 80.2722 31.46 80.2722 30.916C80.2722 30.372 80.4322 29.944 80.7522 29.632C81.0722 29.32 81.5802 29.1 82.2762 28.972L84.5322 28.552C84.5322 28.016 84.4042 27.616 84.1482 27.352C83.9002 27.088 83.5242 26.956 83.0202 26.956C82.5802 26.956 82.2322 27.056 81.9762 27.256C81.7202 27.448 81.5442 27.728 81.4482 28.096L80.3802 28.012C80.5002 27.412 80.7882 26.928 81.2442 26.56C81.7082 26.184 82.3002 25.996 83.0202 25.996C83.8362 25.996 84.4602 26.228 84.8922 26.692C85.3242 27.148 85.5402 27.78 85.5402 28.588V31.216C85.5402 31.36 85.5642 31.464 85.6122 31.528C85.6682 31.584 85.7562 31.612 85.8762 31.612H86.1282V32.5C86.0962 32.508 86.0442 32.512 85.9722 32.512C85.9002 32.52 85.8242 32.524 85.7442 32.524C85.4562 32.524 85.2202 32.48 85.0362 32.392C84.8602 32.296 84.7322 32.152 84.6522 31.96C84.5722 31.76 84.5322 31.5 84.5322 31.18L84.6522 31.204C84.5962 31.476 84.4602 31.724 84.2442 31.948C84.0282 32.164 83.7602 32.336 83.4402 32.464C83.1202 32.584 82.7802 32.644 82.4202 32.644ZM82.5162 31.756C82.9402 31.756 83.3002 31.676 83.5962 31.516C83.9002 31.348 84.1322 31.124 84.2922 30.844C84.4522 30.556 84.5322 30.236 84.5322 29.884V29.428L82.4682 29.812C82.0362 29.892 81.7362 30.016 81.5682 30.184C81.4082 30.344 81.3282 30.556 81.3282 30.82C81.3282 31.116 81.4322 31.348 81.6402 31.516C81.8562 31.676 82.1482 31.756 82.5162 31.756ZM87.5067 32.5V26.14H88.5147V32.5H87.5067ZM91.5147 32.5V26.14H92.5227V32.5H91.5147ZM87.9867 29.776V28.888H92.0427V29.776H87.9867ZM97.051 32.644C96.467 32.644 95.955 32.508 95.515 32.236C95.075 31.964 94.735 31.58 94.495 31.084C94.255 30.58 94.135 29.992 94.135 29.32C94.135 28.64 94.255 28.052 94.495 27.556C94.735 27.06 95.075 26.676 95.515 26.404C95.955 26.132 96.467 25.996 97.051 25.996C97.635 25.996 98.143 26.132 98.575 26.404C99.015 26.676 99.355 27.06 99.595 27.556C99.835 28.052 99.955 28.64 99.955 29.32C99.955 29.992 99.835 30.58 99.595 31.084C99.355 31.58 99.015 31.964 98.575 32.236C98.143 32.508 97.635 32.644 97.051 32.644ZM97.051 31.684C97.635 31.684 98.087 31.476 98.407 31.06C98.735 30.636 98.899 30.056 98.899 29.32C98.899 28.584 98.735 28.008 98.407 27.592C98.087 27.168 97.635 26.956 97.051 26.956C96.467 26.956 96.011 27.168 95.683 27.592C95.355 28.008 95.191 28.584 95.191 29.32C95.191 30.056 95.355 30.636 95.683 31.06C96.011 31.476 96.467 31.684 97.051 31.684ZM24.96 48.5V42.14H27.6C28.336 42.14 28.92 42.3 29.352 42.62C29.784 42.932 30 43.36 30 43.904C30 44.312 29.844 44.636 29.532 44.876C29.22 45.116 28.792 45.236 28.248 45.236V45.188C28.864 45.188 29.352 45.324 29.712 45.596C30.08 45.868 30.264 46.236 30.264 46.7C30.264 47.252 30.056 47.692 29.64 48.02C29.224 48.34 28.66 48.5 27.948 48.5H24.96ZM25.968 47.612H27.948C28.324 47.612 28.624 47.528 28.848 47.36C29.072 47.192 29.184 46.972 29.184 46.7C29.184 46.396 29.072 46.156 28.848 45.98C28.624 45.804 28.324 45.716 27.948 45.716H25.968V47.612ZM25.968 44.828H27.6C28 44.828 28.32 44.744 28.56 44.576C28.8 44.408 28.92 44.184 28.92 43.904C28.92 43.632 28.8 43.42 28.56 43.268C28.32 43.108 28 43.028 27.6 43.028H25.968V44.828ZM34.6684 48.644C34.0684 48.644 33.5484 48.508 33.1084 48.236C32.6764 47.964 32.3404 47.58 32.1004 47.084C31.8684 46.58 31.7524 45.992 31.7524 45.32C31.7524 44.648 31.8684 44.064 32.1004 43.568C32.3404 43.072 32.6724 42.688 33.0964 42.416C33.5284 42.136 34.0364 41.996 34.6204 41.996C35.1724 41.996 35.6604 42.128 36.0844 42.392C36.5084 42.648 36.8364 43.024 37.0684 43.52C37.3084 44.016 37.4284 44.62 37.4284 45.332V45.632H32.8084C32.8484 46.312 33.0284 46.824 33.3484 47.168C33.6764 47.512 34.1164 47.684 34.6684 47.684C35.0844 47.684 35.4244 47.588 35.6884 47.396C35.9604 47.196 36.1484 46.936 36.2524 46.616L37.3324 46.7C37.1644 47.268 36.8444 47.736 36.3724 48.104C35.9084 48.464 35.3404 48.644 34.6684 48.644ZM32.8084 44.744H36.3244C36.2764 44.128 36.0964 43.676 35.7844 43.388C35.4804 43.1 35.0924 42.956 34.6204 42.956C34.1324 42.956 33.7284 43.108 33.4084 43.412C33.0964 43.708 32.8964 44.152 32.8084 44.744ZM41.6377 48.692C41.2697 48.692 40.9017 48.62 40.5337 48.476C40.1657 48.332 39.8297 48.096 39.5257 47.768C39.2217 47.464 38.9937 47.048 38.8417 46.52C38.6897 45.992 38.6137 45.4 38.6137 44.744C38.6137 43.968 38.6857 43.324 38.8297 42.812C38.9737 42.3 39.2057 41.88 39.5257 41.552C39.8537 41.216 40.2817 40.936 40.8097 40.712C41.0817 40.592 41.2937 40.476 41.4457 40.364C41.5977 40.244 41.7057 40.108 41.7697 39.956C41.8337 39.796 41.8657 39.604 41.8657 39.38L42.8977 39.368C42.8977 39.832 42.8017 40.236 42.6097 40.58C42.4177 40.924 42.0737 41.212 41.5777 41.444C41.3057 41.572 41.0497 41.7 40.8097 41.828C40.5697 41.956 40.3577 42.12 40.1737 42.32C39.9977 42.512 39.8617 42.772 39.7657 43.1C39.6777 43.428 39.6417 43.86 39.6577 44.396L39.4537 44.372C39.5897 44.012 39.7697 43.708 39.9937 43.46C40.2257 43.212 40.4977 43.024 40.8097 42.896C41.1217 42.76 41.4577 42.692 41.8177 42.692C42.3857 42.692 42.8817 42.82 43.3057 43.076C43.7297 43.324 44.0577 43.672 44.2897 44.12C44.5297 44.568 44.6497 45.084 44.6497 45.668C44.6497 46.284 44.5217 46.82 44.2657 47.276C44.0097 47.732 43.6537 48.084 43.1977 48.332C42.7497 48.572 42.2297 48.692 41.6377 48.692ZM41.6617 47.732C42.0377 47.732 42.3697 47.644 42.6577 47.468C42.9537 47.292 43.1817 47.048 43.3417 46.736C43.5097 46.424 43.5937 46.068 43.5937 45.668C43.5937 45.276 43.5137 44.928 43.3537 44.624C43.2017 44.32 42.9857 44.084 42.7057 43.916C42.4257 43.74 42.1057 43.652 41.7457 43.652C41.3537 43.652 41.0057 43.74 40.7017 43.916C40.3977 44.084 40.1577 44.32 39.9817 44.624C39.8137 44.928 39.7257 45.276 39.7177 45.668C39.7097 46.068 39.7857 46.424 39.9457 46.736C40.1137 47.048 40.3457 47.292 40.6417 47.468C40.9377 47.644 41.2777 47.732 41.6617 47.732ZM45.955 45.476V44.528H49.927V45.476H45.955ZM54.1384 48.644C53.5464 48.644 53.0304 48.508 52.5904 48.236C52.1584 47.964 51.8224 47.58 51.5824 47.084C51.3424 46.58 51.2224 45.992 51.2224 45.32C51.2224 44.648 51.3424 44.064 51.5824 43.568C51.8224 43.072 52.1584 42.688 52.5904 42.416C53.0304 42.136 53.5464 41.996 54.1384 41.996C54.6264 41.996 55.0584 42.084 55.4344 42.26C55.8184 42.428 56.1304 42.676 56.3704 43.004C56.6104 43.332 56.7664 43.732 56.8384 44.204L55.7824 44.276C55.7104 43.852 55.5264 43.528 55.2304 43.304C54.9344 43.072 54.5704 42.956 54.1384 42.956C53.5544 42.956 53.0984 43.168 52.7704 43.592C52.4424 44.008 52.2784 44.584 52.2784 45.32C52.2784 46.056 52.4424 46.636 52.7704 47.06C53.0984 47.476 53.5544 47.684 54.1384 47.684C54.5704 47.684 54.9344 47.564 55.2304 47.324C55.5264 47.084 55.7104 46.724 55.7824 46.244L56.8384 46.316C56.7664 46.788 56.6104 47.2 56.3704 47.552C56.1304 47.896 55.8184 48.164 55.4344 48.356C55.0584 48.548 54.6264 48.644 54.1384 48.644ZM59.9779 48.5V43.028H57.6859V42.14H63.2899V43.028H60.9979V48.5H59.9779ZM64.9846 50.3V49.412H65.7166C65.9406 49.412 66.1046 49.376 66.2086 49.304C66.3206 49.24 66.4046 49.132 66.4606 48.98L66.6886 48.38H66.3406L64.0126 42.14H65.1166L67.0126 47.444L68.8246 42.14H69.9286L67.3486 49.304C67.2286 49.648 67.0486 49.9 66.8086 50.06C66.5686 50.22 66.2366 50.3 65.8126 50.3H64.9846ZM70.5975 48.224V47.612H71.1615C71.4175 47.612 71.6135 47.52 71.7495 47.336C71.8935 47.144 71.9935 46.852 72.0495 46.46L72.6255 42.14H76.8735V48.5H75.8655V43.028H73.5375L73.0335 46.556C72.9535 47.132 72.7615 47.556 72.4575 47.828C72.1615 48.092 71.7295 48.224 71.1615 48.224H70.5975ZM70.5975 50.3V47.696H71.6055V50.3H70.5975ZM70.5975 48.5V47.612H77.5095V48.5H70.5975ZM76.8975 50.3V47.612H77.9055V50.3H76.8975ZM79.4737 48.5V42.14H80.4817V46.964L83.2417 42.14H84.4297V48.5H83.4217V43.772L80.7217 48.5H79.4737ZM88.9595 48.644C88.3595 48.644 87.8395 48.508 87.3995 48.236C86.9675 47.964 86.6315 47.58 86.3915 47.084C86.1595 46.58 86.0435 45.992 86.0435 45.32C86.0435 44.648 86.1595 44.064 86.3915 43.568C86.6315 43.072 86.9635 42.688 87.3875 42.416C87.8195 42.136 88.3275 41.996 88.9115 41.996C89.4635 41.996 89.9515 42.128 90.3755 42.392C90.7995 42.648 91.1275 43.024 91.3595 43.52C91.5995 44.016 91.7195 44.62 91.7195 45.332V45.632H87.0995C87.1395 46.312 87.3195 46.824 87.6395 47.168C87.9675 47.512 88.4075 47.684 88.9595 47.684C89.3755 47.684 89.7155 47.588 89.9795 47.396C90.2515 47.196 90.4395 46.936 90.5435 46.616L91.6235 46.7C91.4555 47.268 91.1355 47.736 90.6635 48.104C90.1995 48.464 89.6315 48.644 88.9595 48.644ZM87.0995 44.744H90.6155C90.5675 44.128 90.3875 43.676 90.0755 43.388C89.7715 43.1 89.3835 42.956 88.9115 42.956C88.4235 42.956 88.0195 43.108 87.6995 43.412C87.3875 43.708 87.1875 44.152 87.0995 44.744ZM93.3248 48.5V42.14H94.3328V46.964L97.0928 42.14H98.2808V48.5H97.2728V43.772L94.5728 48.5H93.3248ZM95.7488 41.264C95.2608 41.264 94.8648 41.124 94.5608 40.844C94.2568 40.564 94.0928 40.192 94.0688 39.728H94.7648C94.8048 40 94.9088 40.2 95.0768 40.328C95.2528 40.456 95.4768 40.52 95.7488 40.52C96.0288 40.52 96.2528 40.456 96.4208 40.328C96.5888 40.2 96.6888 40 96.7208 39.728H97.4168C97.3928 40.192 97.2328 40.564 96.9368 40.844C96.6408 41.124 96.2448 41.264 95.7488 41.264Z" fill="#FFFEFA"/>
<path d="M195.648 23.1401C197.469 23.1401 199.29 23.1764 201.111 23.2669C202.245 23.3213 203.156 24.2087 203.211 25.3136C203.36 28.1391 203.36 30.9464 203.211 33.7719C203.156 34.8768 202.245 35.7643 201.111 35.8186C199.29 35.891 197.469 35.9454 195.648 35.9454C193.827 35.9454 192.006 35.9091 190.185 35.8186C189.051 35.7643 188.141 34.8768 188.085 33.7719C187.936 30.9464 187.936 28.1391 188.085 25.3136C188.141 24.2087 189.051 23.3213 190.185 23.2669C192.006 23.1764 193.827 23.1401 195.648 23.1401ZM190.24 24.7159C190.055 24.7159 189.887 24.7883 189.776 24.9151C189.646 25.0419 189.571 25.2049 189.571 25.3679C189.423 28.121 189.423 30.9283 189.571 33.6814C189.571 33.8625 189.664 34.0255 189.776 34.1342C189.906 34.2609 190.073 34.3334 190.24 34.3334C192.024 34.4058 193.846 34.4602 195.629 34.4602C197.413 34.4602 199.235 34.424 201.019 34.3334C201.204 34.3334 201.372 34.2609 201.483 34.1342C201.613 34.0074 201.688 33.8444 201.688 33.6814C201.836 30.9283 201.836 28.121 201.688 25.3679C201.688 25.1868 201.613 25.0238 201.483 24.9151C201.353 24.7883 201.186 24.7159 201.019 24.7159C199.235 24.6434 197.413 24.5891 195.629 24.5891C193.846 24.5891 192.043 24.6253 190.24 24.7159Z" fill="#FFFEFA"/>
<path d="M221.404 23.3755V35.7098H218.765L208.433 24.8245H208.006V35.7098H206.519V23.3755H209.158L219.416 34.2608H219.918V23.3755H221.404Z" fill="#FFFEFA"/>
<path d="M235.472 24.8245H230.268V35.7098H228.782V24.8245H223.578V23.3755H235.472V24.8245Z" fill="#FFFEFA"/>
<path d="M246.454 33.0473H237.348L236.103 35.7098H234.468L240.266 23.3755H243.537L249.334 35.7098H247.699L246.454 33.0473ZM245.767 31.5803L242.589 24.8063H241.232L238.055 31.5803H245.767Z" fill="#FFFEFA"/>
<path d="M266.357 28.9721C266.301 30.077 265.39 30.9644 264.257 31.0188H252.958V35.7098H251.471V23.3755H264.275C265.409 23.4298 266.319 24.3173 266.375 25.4222L266.357 28.9721ZM264.87 28.8997V25.4946C264.87 25.3135 264.796 25.1505 264.665 25.0418C264.535 24.915 264.368 24.8426 264.201 24.8426H252.977V29.5517L264.201 29.5698C264.387 29.5698 264.554 29.4974 264.665 29.3706C264.796 29.2257 264.87 29.0627 264.87 28.8997Z" fill="#FFFEFA"/>
<path d="M270.593 24.8245V28.8091H281V30.2581H270.593V34.2427H281V35.6917H269.088V23.3755H281V24.8245H270.593Z" fill="#FFFEFA"/>
<path d="M188.308 38.7161H187.341V37.2671H201.706C202.895 37.3214 203.843 38.2089 203.899 39.3138V47.5729C203.843 48.6777 202.877 49.5652 201.706 49.6195H188.308V38.7161ZM202.357 39.3862C202.338 39.2051 202.264 39.0421 202.134 38.9334C202.003 38.8066 201.818 38.7342 201.632 38.7342H189.869V48.1524H201.65C201.836 48.1524 202.003 48.08 202.152 47.9532C202.282 47.8264 202.357 47.6634 202.375 47.5004V39.3862H202.357Z" fill="#FFFEFA"/>
<path d="M208.786 38.7161V42.7007H219.695V44.1497H208.786V48.1343H219.695V49.5833H207.225V37.2671H219.695V38.7161H208.786Z" fill="#FFFEFA"/>
<path d="M224.638 44.1689C223.448 44.1145 222.501 43.227 222.445 42.1222V40.3472C222.463 39.9669 222.482 39.5865 222.501 39.2062C222.556 38.1013 223.523 37.2138 224.693 37.1595C226.607 37.0871 228.336 37.0327 230.231 37.0327C232.127 37.0327 233.873 37.0689 235.769 37.1595C236.958 37.2138 237.906 38.1013 237.962 39.2062C237.98 39.5865 237.999 39.9669 238.017 40.3472H236.456C236.438 39.985 236.419 39.6409 236.401 39.2786C236.382 39.0975 236.308 38.9345 236.178 38.8258C236.048 38.699 235.862 38.6266 235.676 38.6266C233.799 38.5541 232.071 38.4998 230.194 38.4998C228.317 38.4998 226.589 38.536 224.712 38.6266C224.526 38.6266 224.359 38.699 224.21 38.8258C224.08 38.9526 224.006 39.1156 223.987 39.2786C223.969 39.6409 223.95 39.985 223.931 40.3472V42.0498C223.95 42.2309 224.024 42.3939 224.154 42.5026C224.285 42.6293 224.47 42.7018 224.656 42.7018H235.787C236.977 42.7561 237.924 43.6436 237.98 44.7485V46.5234C237.962 46.9038 237.943 47.2841 237.924 47.6645C237.869 48.7693 236.902 49.6568 235.732 49.7112C233.818 49.7836 232.089 49.838 230.194 49.838C228.28 49.838 226.552 49.8017 224.656 49.7112C223.467 49.6568 222.519 48.7693 222.463 47.6645C222.445 47.2841 222.426 46.9038 222.408 46.5234H223.969C223.987 46.8857 224.006 47.2298 224.024 47.5921C224.043 47.7732 224.117 47.9362 224.247 48.0449C224.377 48.1716 224.563 48.2441 224.749 48.2441C226.626 48.3165 228.354 48.3709 230.231 48.3709C232.108 48.3709 233.836 48.3346 235.713 48.2441C235.899 48.2441 236.066 48.1716 236.215 48.0449C236.345 47.9181 236.419 47.7551 236.438 47.5921C236.456 47.2298 236.475 46.8857 236.494 46.5234V44.8209C236.475 44.6398 236.401 44.4768 236.271 44.3681C236.141 44.2413 235.955 44.1689 235.769 44.1689H224.638Z" fill="#FFFEFA"/>
<path d="M241.232 49.6014V37.2671H242.793V49.6014H241.232Z" fill="#FFFEFA"/>
<path d="M251.434 44.187V42.7199H259.983C261.172 42.7742 262.12 43.6617 262.194 44.7666V46.5234C262.175 46.9038 262.157 47.2841 262.138 47.6645C262.082 48.7693 261.116 49.6568 259.927 49.7112C258.013 49.8017 256.117 49.838 254.203 49.838C252.289 49.838 250.394 49.8017 248.48 49.7112C247.29 49.6568 246.343 48.7693 246.287 47.6645C246.138 44.839 246.138 42.0316 246.287 39.2062C246.343 38.1013 247.309 37.2138 248.48 37.1595C250.394 37.0871 252.289 37.0327 254.203 37.0327C256.117 37.0327 258.013 37.0689 259.927 37.1595C261.116 37.2138 262.064 38.1013 262.12 39.2062C262.138 39.5865 262.157 39.9669 262.175 40.3472H260.614C260.596 39.985 260.577 39.6227 260.559 39.2786C260.54 39.0975 260.466 38.9345 260.336 38.8258C260.206 38.699 260.02 38.6266 259.834 38.6266C257.957 38.5541 256.062 38.4998 254.185 38.4998C252.308 38.4998 250.412 38.536 248.535 38.6266C248.35 38.6266 248.182 38.699 248.034 38.8258C247.904 38.9526 247.829 39.1156 247.811 39.2786C247.662 42.0316 247.662 44.839 247.811 47.5921C247.829 47.7732 247.904 47.9362 248.034 48.0449C248.164 48.1716 248.35 48.2441 248.535 48.2441C250.412 48.3165 252.308 48.3709 254.185 48.3709C256.062 48.3709 257.957 48.3346 259.834 48.2441C260.02 48.2441 260.187 48.1716 260.336 48.0449C260.466 47.9181 260.54 47.7551 260.559 47.5921C260.577 47.2298 260.596 46.8857 260.614 46.5234V44.839C260.596 44.6579 260.521 44.4949 260.391 44.3862C260.261 44.2594 260.075 44.187 259.89 44.187H251.434Z" fill="#FFFEFA"/>
<path d="M280.981 37.2671V49.6014H278.213L267.379 38.7161H266.933V49.6014H265.39V37.2671H268.159L278.919 48.1524H279.439V37.2671H280.981Z" fill="#FFFEFA"/>
<path d="M148.744 23.2871C149.283 23.3052 149.767 23.4682 150.157 23.7399C150.528 24.0116 150.751 24.3738 150.77 24.7723C150.807 25.4968 150.863 26.2212 150.9 26.9457C151.067 30.1334 151.142 33.3393 151.142 36.5089C151.142 40.403 151.012 44.3514 150.77 48.2274C150.751 48.6077 150.528 48.9881 150.157 49.2598C149.785 49.5315 149.283 49.6945 148.744 49.7126C140.345 50.0205 131.815 50.0205 123.397 49.7126C122.858 49.6945 122.375 49.5315 121.985 49.2598C121.613 48.9881 121.39 48.6259 121.372 48.2274C121.13 44.3333 121 40.3849 121 36.5089C121 33.3393 121.074 30.1334 121.242 26.9457C121.279 26.2212 121.316 25.4968 121.372 24.7723C121.39 24.3919 121.613 24.0297 121.985 23.7399C122.357 23.4682 122.858 23.3052 123.397 23.2871C131.797 22.9792 140.326 22.9792 148.744 23.2871Z" fill="#D53B2F"/>
<path d="M181.878 23.2871C182.417 23.3052 182.9 23.4682 183.291 23.7399C183.662 24.0116 183.885 24.3738 183.904 24.7723C183.941 25.4968 183.997 26.2212 184.034 26.9457C184.201 30.1334 184.275 33.3393 184.275 36.5089C184.275 40.403 184.145 44.3514 183.904 48.2274C183.885 48.6077 183.662 48.9881 183.291 49.2598C182.919 49.5315 182.417 49.6945 181.878 49.7126C173.479 50.0205 164.949 50.0205 156.531 49.7126C155.992 49.6945 155.509 49.5315 155.119 49.2598C154.747 48.9881 154.524 48.6259 154.505 48.2274C154.264 44.3333 154.134 40.3849 154.134 36.5089C154.134 33.3393 154.208 30.1334 154.375 26.9457C154.412 26.2212 154.45 25.4968 154.505 24.7723C154.524 24.3919 154.747 24.0297 155.119 23.7399C155.49 23.4682 155.992 23.3052 156.531 23.2871C164.93 22.9792 173.46 22.9792 181.878 23.2871Z" fill="#A3A3A3"/>
<path d="M136.071 28.0337C138.487 28.0337 140.884 28.088 143.3 28.1967C144.805 28.2691 145.994 29.4283 146.069 30.8954C146.255 34.6265 146.255 38.3576 146.069 42.0887C145.994 43.5557 144.786 44.7149 143.3 44.7874C140.884 44.896 138.487 44.9504 136.071 44.9504C133.655 44.9504 131.258 44.896 128.842 44.7874C127.337 44.7149 126.148 43.5557 126.073 42.0887C125.887 38.3576 125.887 34.6265 126.073 30.8954C126.148 29.4283 127.356 28.2691 128.842 28.1967C131.239 28.088 133.655 28.0337 136.071 28.0337ZM128.935 30.1166C128.694 30.1347 128.471 30.2253 128.303 30.3883C128.136 30.5513 128.043 30.7686 128.025 31.0041C127.839 34.6446 127.839 38.3576 128.025 41.9981C128.043 42.2336 128.136 42.4509 128.303 42.6139C128.471 42.7769 128.694 42.8675 128.935 42.8856C131.295 42.9943 133.711 43.0486 136.071 43.0486C138.431 43.0486 140.847 42.9943 143.207 42.8856C143.448 42.8675 143.671 42.7769 143.839 42.6139C144.006 42.4509 144.099 42.2336 144.117 41.9981C144.303 38.3576 144.303 34.6446 144.117 31.0041C144.099 30.7686 144.006 30.5513 143.839 30.3883C143.671 30.2253 143.448 30.1347 143.207 30.1166C140.847 30.0079 138.431 29.9536 136.071 29.9536C133.711 29.9536 131.295 30.0079 128.935 30.1166Z" fill="#FFFEFA"/>
<path d="M159.969 30.2612H158.742V28.3413H176.88C178.385 28.4138 179.574 29.5729 179.648 31.04V41.9616C179.574 43.4287 178.366 44.5878 176.88 44.6603H159.969V30.2612ZM177.679 41.8529V31.1306C177.66 30.8951 177.567 30.6778 177.4 30.5148C177.233 30.3517 177.01 30.2612 176.768 30.2431H161.92V42.7223H176.768C177.01 42.7042 177.233 42.6136 177.4 42.4506C177.586 42.3057 177.679 42.0884 177.679 41.8529Z" fill="#FFFEFA"/>
</svg>
