<svg width="18" height="15" viewBox="0 0 18 15" fill="none" xmlns="http://www.w3.org/2000/svg">
<path d="M16.5564 8.36401C17.1086 8.36401 17.5564 7.9163 17.5564 7.36401C17.5564 6.81173 17.1086 6.36401 16.5564 6.36401V7.36401V8.36401ZM0.292894 6.65691C-0.0976295 7.04743 -0.0976295 7.6806 0.292894 8.07112L6.65686 14.4351C7.04738 14.8256 7.68054 14.8256 8.07107 14.4351C8.46159 14.0446 8.46159 13.4114 8.07107 13.0209L2.41421 7.36401L8.07107 1.70716C8.46159 1.31664 8.46159 0.68347 8.07107 0.292946C7.68054 -0.0975785 7.04738 -0.0975785 6.65686 0.292946L0.292894 6.65691ZM16.5564 7.36401V6.36401L1 6.36401V7.36401V8.36401L16.5564 8.36401V7.36401Z" fill="#1B1E18"/>
</svg>
