<svg width="18" height="15" viewBox="0 0 18 15" fill="none" xmlns="http://www.w3.org/2000/svg">
<path d="M1 6.36401C0.447715 6.36401 0 6.81173 0 7.36401C0 7.9163 0.447715 8.36401 1 8.36401V7.36401V6.36401ZM17.2635 8.07112C17.654 7.6806 17.654 7.04743 17.2635 6.65691L10.8995 0.292946C10.509 -0.0975785 9.87581 -0.0975785 9.48528 0.292946C9.09476 0.68347 9.09476 1.31664 9.48528 1.70716L15.1421 7.36401L9.48528 13.0209C9.09476 13.4114 9.09476 14.0446 9.48528 14.4351C9.87581 14.8256 10.509 14.8256 10.8995 14.4351L17.2635 8.07112ZM1 7.36401V8.36401H16.5563V7.36401V6.36401L1 6.36401V7.36401Z" fill="#1B1E18"/>
</svg>
