<svg width="45" height="45" viewBox="0 0 45 45" fill="none" xmlns="http://www.w3.org/2000/svg">
<rect width="45" height="45" rx="22.5" fill="#F5F5F5"/>
<path d="M25.7021 29.5H27.4149C27.9679 29.5 28.4983 29.2803 28.8893 28.8893C29.2803 28.4983 29.5 27.9679 29.5 27.4149V25.7021M29.5 19.2979V17.5851C29.5 17.0321 29.2803 16.5017 28.8893 16.1107C28.4983 15.7197 27.9679 15.5 27.4149 15.5H25.7021M19.2979 29.5H17.5851C17.0321 29.5 16.5017 29.2803 16.1107 28.8893C15.7197 28.4983 15.5 27.9679 15.5 27.4149V25.7021M15.5 19.2979V17.5851C15.5 17.0321 15.7197 16.5017 16.1107 16.1107C16.5017 15.7197 17.0321 15.5 17.5851 15.5H19.2979" stroke="#139767" stroke-width="2" stroke-linecap="round" stroke-linejoin="round"/>
</svg>
