<svg width="20" height="16" viewBox="0 0 20 16" fill="none" xmlns="http://www.w3.org/2000/svg">
<path d="M19.9999 2.7626C20.0007 2.23114 19.8479 1.71077 19.56 1.26406C19.2721 0.817358 18.8612 0.463334 18.3769 0.244562C17.8925 0.025791 17.3553 -0.0484136 16.8298 0.0308716C16.3043 0.110157 15.8128 0.339556 15.4146 0.691485C15.199 0.881673 15.0142 1.10414 14.8667 1.35097V1.35355C14.8435 1.39235 14.8215 1.432 14.7999 1.47166L14.7896 1.49278C14.7715 1.52683 14.7547 1.56131 14.7383 1.59623C14.7331 1.607 14.7284 1.61778 14.7236 1.62855C14.7094 1.66002 14.6956 1.69192 14.6827 1.72424C14.6771 1.73761 14.6719 1.75097 14.6667 1.76433C14.6551 1.7945 14.6439 1.82467 14.6331 1.85528L14.6176 1.90097C14.6081 1.93028 14.5991 1.96002 14.5905 1.98976C14.5853 2.00657 14.5805 2.02295 14.5762 2.03976C14.568 2.06864 14.5611 2.09795 14.5542 2.12597C14.5499 2.14364 14.5456 2.16131 14.5417 2.17898C14.5357 2.20829 14.5301 2.23804 14.5249 2.26519C14.5215 2.28329 14.518 2.3014 14.515 2.3195C14.5103 2.34967 14.5064 2.38028 14.5025 2.41088C14.5004 2.42855 14.4978 2.44623 14.4956 2.46433C14.4922 2.49752 14.49 2.53071 14.4874 2.56433C14.4874 2.57985 14.4848 2.59536 14.484 2.61088C14.4814 2.66002 14.4797 2.70916 14.4797 2.75916C14.4797 2.80226 14.4797 2.84536 14.4831 2.88588V2.91347C14.4854 2.95398 14.4884 2.9945 14.4922 3.03502L14.4948 3.05571C14.4986 3.09235 14.503 3.12855 14.5086 3.16433C14.5086 3.17166 14.5086 3.17942 14.5116 3.18674C14.5176 3.22597 14.5249 3.26476 14.5327 3.30355C14.5327 3.31304 14.5366 3.32209 14.5383 3.33157C14.5461 3.36864 14.5547 3.40571 14.5642 3.44235V3.45054C14.5741 3.4889 14.5848 3.5264 14.5965 3.5639L14.6055 3.59321C14.6172 3.62985 14.6292 3.66562 14.6422 3.7014C14.6448 3.70916 14.6478 3.71691 14.6508 3.72467C14.6624 3.75528 14.6745 3.78588 14.687 3.81605C14.6905 3.8251 14.6939 3.83373 14.6978 3.84235C14.7124 3.8764 14.7275 3.91045 14.7435 3.94407L14.7577 3.97295C14.7728 4.00312 14.7879 4.03329 14.8038 4.06304C15.0288 4.48119 15.3574 4.83457 15.7581 5.08933C15.8633 5.15653 15.9731 5.2163 16.0866 5.26821L16.1034 5.27597C16.1798 5.31045 16.2578 5.34148 16.3374 5.36907L16.3784 5.38286L16.443 5.40312C16.4624 5.40916 16.4818 5.41433 16.5017 5.41993L16.5844 5.44148L16.659 5.45873L16.7086 5.46864L16.7874 5.48286L16.828 5.48933C16.8667 5.49493 16.906 5.5001 16.9452 5.50441L16.9784 5.50743C17.0098 5.51002 17.0417 5.5126 17.0736 5.51433L17.1107 5.51648C17.1538 5.51648 17.1943 5.51993 17.2366 5.51993C17.2866 5.51993 17.3357 5.51993 17.3848 5.51562L17.4314 5.51217C17.465 5.50959 17.4982 5.50743 17.5314 5.50398L17.5853 5.49709C17.6155 5.49321 17.6461 5.48933 17.6762 5.48459L17.7305 5.47467C17.7598 5.4695 17.7896 5.4639 17.8167 5.45786L17.8698 5.44536C17.8991 5.43847 17.9284 5.43157 17.956 5.42338C17.9728 5.41907 17.9892 5.41433 18.006 5.40916C18.0357 5.40054 18.0655 5.39148 18.0948 5.382L18.1405 5.36648C18.1711 5.35571 18.2012 5.3445 18.2314 5.33286L18.2715 5.31691C18.3038 5.30398 18.3357 5.29019 18.3672 5.27597L18.3995 5.26131C18.4344 5.24493 18.4689 5.22812 18.503 5.21002L18.5241 5.19967C18.5637 5.17812 18.6034 5.15657 18.6422 5.13286H18.6448C18.8936 4.9866 19.1181 4.8025 19.3103 4.58717C19.7553 4.08366 20.0007 3.43462 19.9999 2.7626Z" fill="white"/>
<path d="M14.6284 5.97482L10.0784 9.51362C9.95741 9.60771 9.80848 9.65879 9.65517 9.65879C9.50187 9.65879 9.35293 9.60771 9.2319 9.51362L3.025 4.68603C2.95207 4.63096 2.89082 4.56194 2.8448 4.483C2.79878 4.40405 2.76891 4.31674 2.75692 4.22614C2.74493 4.13555 2.75107 4.04348 2.77497 3.95528C2.79888 3.86707 2.84007 3.7845 2.89616 3.71236C2.95226 3.64022 3.02213 3.57994 3.10172 3.53503C3.1813 3.49013 3.26902 3.46149 3.35978 3.45078C3.45053 3.44006 3.54251 3.4475 3.63036 3.47264C3.71822 3.49778 3.8002 3.54014 3.87155 3.59724L9.65517 8.09551L13.7164 4.93689C13.3234 4.30119 13.1102 3.5708 13.0995 2.82353C13.0888 2.07625 13.281 1.34006 13.6556 0.693359H2.41379C1.77383 0.694044 1.16027 0.948573 0.70774 1.4011C0.255214 1.85362 0.00068458 2.46718 0 3.10715V13.452C0.00068458 14.0919 0.255214 14.7055 0.70774 15.158C1.16027 15.6106 1.77383 15.8651 2.41379 15.8658H16.8966C17.5365 15.8651 18.1501 15.6106 18.6026 15.158C19.0551 14.7055 19.3097 14.0919 19.3103 13.452V6.3481C18.5844 6.76862 17.7475 6.95815 16.9112 6.89147C16.0749 6.82479 15.2786 6.50507 14.6284 5.97482Z" fill="white"/>
</svg>
