<svg width="15" height="15" viewBox="0 0 15 15" fill="none" xmlns="http://www.w3.org/2000/svg">
<path d="M12.1667 6.33333V13.0417C12.1667 13.2332 12.1289 13.4228 12.0557 13.5997C11.9824 13.7767 11.8749 13.9374 11.7395 14.0729C11.6041 14.2083 11.4433 14.3157 11.2664 14.389C11.0895 14.4623 10.8998 14.5 10.7083 14.5H1.95833C1.57156 14.5 1.20063 14.3464 0.927136 14.0729C0.653645 13.7994 0.5 13.4284 0.5 13.0417V4.29167C0.5 3.90489 0.653645 3.53396 0.927136 3.26047C1.20063 2.98698 1.57156 2.83333 1.95833 2.83333H8.06438M10.4167 0.5H14.5V4.58333M6.33333 8.66667L14.2083 0.791667" stroke="white" stroke-linecap="round" stroke-linejoin="round"/>
</svg>
