<svg width="26" height="26" viewBox="0 0 26 26" fill="none" xmlns="http://www.w3.org/2000/svg">
<g clip-path="url(#clip0_673_715)">
<path d="M13 1C19.6274 1 25 6.37258 25 13C25 19.6274 19.6274 25 13 25C6.37258 25 1 19.6274 1 13C1 6.37258 6.37258 1 13 1Z" stroke="white" stroke-width="2"/>
<path fill-rule="evenodd" clip-rule="evenodd" d="M6.82494 12.3049C10.0462 10.8937 12.1941 9.96333 13.2689 9.51383C16.3375 8.23039 16.9751 8.00744 17.3907 8.00008C17.4822 7.99846 17.6865 8.02124 17.8189 8.12926C17.9307 8.22047 17.9615 8.34368 17.9762 8.43016C17.9909 8.51664 18.0092 8.71364 17.9947 8.86757C17.8284 10.6245 17.1088 14.8881 16.7428 16.8559C16.5879 17.6885 16.2829 17.9677 15.9876 17.995C15.346 18.0544 14.8587 17.5686 14.2372 17.159C13.2647 16.5179 12.7153 16.1189 11.7713 15.4933C10.6803 14.7704 11.3875 14.3731 12.0093 13.7237C12.172 13.5538 14.9992 10.9679 15.054 10.7333C15.0608 10.704 15.0671 10.5946 15.0025 10.5369C14.9379 10.4792 14.8426 10.4989 14.7738 10.5146C14.6762 10.5369 13.1226 11.5695 10.1129 13.6124C9.67193 13.9169 9.2725 14.0652 8.91462 14.0574C8.52009 14.0489 7.76117 13.8331 7.19699 13.6487C6.505 13.4225 5.95502 13.3029 6.00291 12.9188C6.02785 12.7187 6.30186 12.5141 6.82494 12.3049Z" fill="white"/>
</g>
<defs>
<clipPath id="clip0_673_715">
<rect width="26" height="26" fill="white"/>
</clipPath>
</defs>
</svg>
