<svg width="56" height="56" viewBox="0 0 56 56" fill="none" xmlns="http://www.w3.org/2000/svg">
<circle opacity="0.55" cx="28" cy="28" r="28" fill="#1B1E18"/>
<path d="M32.2079 17.49C31.1395 16.3364 29.6471 15.7012 28 15.7012C26.3441 15.7012 24.8468 16.3326 23.7833 17.479C22.7083 18.638 22.1845 20.2133 22.3075 21.9142C22.5512 25.27 25.1049 27.9999 28 27.9999C30.8951 27.9999 33.4444 25.2705 33.692 21.9153C33.8166 20.2297 33.2895 18.6578 32.2079 17.49ZM37.6633 40.2986H18.3367C18.0838 40.3019 17.8333 40.2487 17.6034 40.143C17.3736 40.0373 17.1702 39.8817 17.008 39.6875C16.6512 39.2609 16.5073 38.6783 16.6138 38.0892C17.0772 35.5185 18.5234 33.3591 20.7965 31.8432C22.8159 30.4975 25.3739 29.7568 28 29.7568C30.6261 29.7568 33.1841 30.498 35.2035 31.8432C37.4766 33.3586 38.9228 35.518 39.3862 38.0886C39.4927 38.6778 39.3488 39.2603 38.992 39.6869C38.8299 39.8812 38.6265 40.0369 38.3967 40.1428C38.1668 40.2486 37.9163 40.3018 37.6633 40.2986Z" fill="white"/>
</svg>
