<svg width="28" height="28" viewBox="0 0 28 28" fill="none" xmlns="http://www.w3.org/2000/svg">
<path d="M2.53334 2.53333L2.05967 2.06413L2.06528 2.0586L2.53334 2.53333ZM2.53334 25.4667L2.06414 25.9403L2.0586 25.9347L2.53334 25.4667ZM25.4667 25.4667L25.9404 25.9359L25.9348 25.9415L25.4667 25.4667ZM25.4667 2.53333L25.9359 2.05967L25.9415 2.06528L25.4667 2.53333ZM5.16445 8.78223L4.49792 8.79589C4.49425 8.61675 4.56284 8.44367 4.68824 8.31568C4.81364 8.18768 4.98526 8.11556 5.16445 8.11556V8.78223ZM15.2089 19.8756H15.8756C15.8756 20.2437 15.577 20.5423 15.2089 20.5423V19.8756ZM15.2089 15.9111H14.5422C14.5422 15.7228 14.6218 15.5433 14.7614 15.4169C14.901 15.2905 15.0876 15.2291 15.275 15.2477L15.2089 15.9111ZM19.8045 19.8756V20.5423C19.5146 20.5423 19.2581 20.3551 19.1697 20.0791L19.8045 19.8756ZM22.96 19.8756L23.6036 19.7016C23.6577 19.9019 23.6156 20.116 23.4895 20.2808C23.3632 20.4456 23.1676 20.5423 22.96 20.5423V19.8756ZM18.4 14.3111L18.1029 14.908C17.8857 14.7997 17.7442 14.582 17.734 14.3395C17.7236 14.0969 17.846 13.868 18.0533 13.7417L18.4 14.3111ZM22.2933 8.77333V8.10667C22.4936 8.10667 22.6832 8.19667 22.8099 8.3518C22.9365 8.50692 22.9867 8.71075 22.9465 8.90692L22.2933 8.77333ZM19.4312 8.77333L18.7896 8.59224C18.8706 8.30501 19.1326 8.10667 19.4312 8.10667V8.77333ZM15.2089 13.1644L15.2796 13.8273C15.0916 13.8475 14.9038 13.7867 14.7632 13.6603C14.6225 13.5337 14.5422 13.3536 14.5422 13.1644H15.2089ZM15.2089 8.78223V8.11556C15.577 8.11556 15.8756 8.41404 15.8756 8.78223H15.2089ZM12.3378 8.78223H11.6712C11.6712 8.41404 11.9696 8.11556 12.3378 8.11556V8.78223ZM12.3378 16.4623H13.0045C13.0045 16.6675 12.9098 16.8613 12.7481 16.9877C12.5862 17.114 12.3753 17.1588 12.1761 17.1089L12.3378 16.4623ZM8.22223 8.78223V8.11556C8.58543 8.11556 8.88179 8.40628 8.88878 8.7694L8.22223 8.78223ZM1.85237e-07 13.4667C1.85237e-07 10.4676 -0.00139983 8.15273 0.239227 6.35489C0.482414 4.53789 0.983562 3.15049 2.05967 2.06413L3.00697 3.00249C2.21642 3.80057 1.78426 4.86211 1.56078 6.53177C1.33474 8.2206 1.33334 10.4301 1.33334 13.4667H1.85237e-07ZM1.85237e-07 14.5333V13.4667H1.33334V14.5333H1.85237e-07ZM2.0586 25.9347C0.983535 24.8443 0.482428 23.4556 0.239227 21.6384C-0.00139983 19.8407 1.85237e-07 17.528 1.85237e-07 14.5333H1.33334C1.33334 17.5653 1.33474 19.7727 1.56078 21.4616C1.78423 23.1311 2.21647 24.1957 3.00807 24.9987L2.0586 25.9347ZM13.4666 28C10.4677 28 8.15275 28.0015 6.35491 27.7608C4.53789 27.5176 3.1505 27.0164 2.06414 25.9403L3.0025 24.9931C3.80058 25.7836 4.86212 26.2157 6.53179 26.4392C8.22061 26.6652 10.4302 26.6667 13.4666 26.6667V28ZM14.5333 28H13.4666V26.6667H14.5333V28ZM25.9348 25.9415C24.8444 27.0165 23.4556 27.5176 21.6385 27.7608C19.8407 28.0015 17.528 28 14.5333 28V26.6667C17.5654 26.6667 19.7728 26.6652 21.4616 26.4392C23.1312 26.2157 24.1957 25.7835 24.9987 24.9919L25.9348 25.9415ZM28 14.5333C28 17.5324 28.0015 19.8473 27.7608 21.6451C27.5176 23.4621 27.0165 24.8495 25.9404 25.9359L24.9931 24.9975C25.7836 24.1995 26.2159 23.1379 26.4393 21.4683C26.6653 19.7793 26.6667 17.5699 26.6667 14.5333H28ZM28 13.4667V14.5333H26.6667V13.4667H28ZM25.9415 2.06528C27.0165 3.15571 27.5176 4.54445 27.7608 6.36156C28.0015 8.15939 28 10.4721 28 13.4667H26.6667C26.6667 10.4346 26.6653 8.22728 26.4393 6.53844C26.2159 4.86888 25.7836 3.80429 24.992 3.00139L25.9415 2.06528ZM14.5333 1.85236e-07C17.5324 1.85236e-07 19.8473 -0.00139983 21.6452 0.239227C23.4621 0.482414 24.8495 0.983547 25.9359 2.05967L24.9976 3.00696C24.1995 2.21641 23.138 1.78425 21.4683 1.56077C19.7795 1.33473 17.5698 1.33333 14.5333 1.33333V1.85236e-07ZM13.4666 1.85236e-07H14.5333V1.33333H13.4666V1.85236e-07ZM2.06528 2.0586C3.15571 0.983534 4.54446 0.48244 6.36157 0.239227C8.1594 -0.00139983 10.4721 1.85236e-07 13.4666 1.85236e-07V1.33333C10.4346 1.33333 8.22728 1.33473 6.53845 1.56077C4.86889 1.78423 3.8043 2.21647 3.00139 3.00807L2.06528 2.0586ZM14.8533 20.5423C11.6504 20.5423 9.06738 19.4397 7.27739 17.3643C5.50066 15.3043 4.57109 12.3625 4.49792 8.79589L5.83098 8.76855C5.83571 8.9989 5.84421 9.2257 5.85642 9.44889C6.02274 12.4877 6.87836 14.8601 8.28707 16.4935C9.73148 18.1681 11.818 19.1368 14.5422 19.2051C14.645 19.2076 14.7487 19.2089 14.8533 19.2089V20.5423ZM14.8622 20.5423H14.8533V19.2089H14.8622V20.5423ZM15.2089 20.5423H14.8622V19.2089H15.2089V20.5423ZM15.8756 15.9111V19.8756H14.5422V19.2051V15.9111H15.8756ZM19.1697 20.0791C18.559 18.1749 17.0608 16.7655 15.1428 16.5745L15.275 15.2477C17.6467 15.484 19.4409 17.1178 20.2732 19.2089C20.3337 19.361 20.3891 19.5155 20.4393 19.672L19.1697 20.0791ZM22.96 20.5423H19.8045V19.2089H20.2732H22.0392H22.96V20.5423ZM21.7923 16.1819C22.638 17.2139 23.2553 18.4135 23.6036 19.7016L22.3165 20.0496C22.2393 19.7639 22.1466 19.4833 22.0392 19.2089C21.7305 18.4209 21.2997 17.6843 20.7609 17.0271L21.7923 16.1819ZM18.697 13.7143C19.8916 14.3088 20.9465 15.1499 21.7923 16.1819L20.7609 17.0271C20.0346 16.1408 19.1288 15.4185 18.1029 14.908L18.697 13.7143ZM21.4693 12.3315C20.7467 13.3593 19.8199 14.2271 18.7468 14.8805L18.0533 13.7417C18.9698 13.1836 19.7613 12.4424 20.3785 11.5647L21.4693 12.3315ZM22.9465 8.90692C22.6948 10.1378 22.1919 11.3036 21.4693 12.3315L20.3785 11.5647C20.8367 10.9129 21.1915 10.1962 21.4319 9.44C21.5152 9.17765 21.5849 8.91055 21.6403 8.63976L22.9465 8.90692ZM19.4312 8.10667H22.2933V9.44H21.4319H19.9169H19.4312V8.10667ZM15.1382 12.5016C15.8002 12.4309 16.5636 11.9995 17.26 11.2664C17.9476 10.5426 18.509 9.58585 18.7896 8.59224L20.0728 8.95443C20.0267 9.11764 19.9746 9.27967 19.9169 9.44C19.5464 10.4691 18.945 11.4286 18.2268 12.1847C17.4053 13.0493 16.3688 13.7112 15.2796 13.8273L15.1382 12.5016ZM15.8756 8.78223V13.1644H14.5422V9.44889V8.78223H15.8756ZM12.3378 8.11556H15.2089V9.44889H14.5422H13.0045H12.3378V8.11556ZM11.6712 16.4623V8.78223H13.0045V9.44889V16.4623H11.6712ZM8.88878 8.7694C8.98302 13.6701 11.1139 15.4691 12.4994 15.8155L12.1761 17.1089C10.0979 16.5895 7.85545 14.2715 7.58044 9.44889C7.56829 9.23585 7.55998 9.01792 7.55569 8.79504L8.88878 8.7694ZM5.16445 8.11556H8.22223V9.44889H7.58044H5.85642H5.16445V8.11556Z" fill="white"/>
<path d="M14.5422 15.9111C14.5422 15.7228 14.6218 15.5433 14.7614 15.4169C14.901 15.2905 15.0876 15.2291 15.275 15.2477C17.6467 15.484 19.4409 17.1178 20.2732 19.2089H22.0392C21.7305 18.4209 21.2997 17.6843 20.7609 17.0271C20.0346 16.1408 19.1288 15.4185 18.1029 14.908C17.8857 14.7997 17.7442 14.582 17.734 14.3395C17.7236 14.0969 17.846 13.868 18.0533 13.7417C18.9698 13.1836 19.7613 12.4424 20.3785 11.5647C20.8367 10.9129 21.1915 10.1962 21.4319 9.44H19.9169C19.5464 10.4691 18.945 11.4286 18.2268 12.1847C17.4053 13.0493 16.3688 13.7112 15.2796 13.8273C15.0916 13.8475 14.9038 13.7867 14.7632 13.6603C14.6225 13.5337 14.5422 13.3536 14.5422 13.1644V9.44889H13.0045V16.4623C13.0045 16.6675 12.9098 16.8613 12.7481 16.9877C12.5862 17.114 12.3753 17.1588 12.1761 17.1089C10.0979 16.5895 7.85545 14.2715 7.58044 9.44889H5.85642C6.02274 12.4877 6.87836 14.8601 8.28707 16.4935C9.73148 18.1681 11.818 19.1368 14.5422 19.2051V15.9111Z" fill="white"/>
</svg>
